<?xml version="1.0" standalone="no"?>
<!DOCTYPE svg PUBLIC "-//W3C//DTD SVG 20010904//EN"
 "http://www.w3.org/TR/2001/REC-SVG-20010904/DTD/svg10.dtd">
<svg version="1.0" xmlns="http://www.w3.org/2000/svg"
 width="540.000000pt" height="170.000000pt" viewBox="0 0 540.000000 170.000000"
 preserveAspectRatio="xMidYMid meet">

<g transform="translate(0.000000,170.000000) scale(0.100000,-0.100000)"
fill="#CC0000" stroke="none">
<path d="M0 850 l0 -850 2700 0 2700 0 0 850 0 850 -2700 0 -2700 0 0 -850z
m1696 377 c62 -32 96 -91 109 -184 l7 -53 -86 0 -86 0 0 34 c0 84 -43 126 -99
95 -48 -27 -56 -60 -59 -244 -5 -236 9 -292 79 -309 46 -10 77 24 85 94 l7 60
78 0 79 0 0 -43 c0 -74 -26 -141 -69 -180 -45 -40 -87 -52 -178 -51 -114 2
-194 52 -229 144 -22 58 -32 363 -14 454 21 111 73 172 166 195 52 14 175 6
210 -12z m801 8 c83 -25 126 -85 127 -180 l1 -40 -80 0 -80 0 -6 39 c-12 72
-77 99 -124 51 -50 -50 -25 -115 65 -165 96 -55 161 -102 191 -140 36 -44 51
-117 38 -184 -22 -118 -97 -168 -253 -169 -98 -1 -162 19 -199 61 -27 30 -46
90 -47 145 l0 47 85 0 85 0 0 -35 c0 -53 19 -84 58 -95 70 -19 124 37 102 104
-12 38 -42 63 -145 124 -148 86 -199 180 -165 304 33 119 191 179 347 133z
m-1572 -262 l100 -262 3 265 2 264 75 0 75 0 0 -390 0 -390 -108 0 -107 0
-102 273 -102 272 0 -272 -1 -273 -80 0 -80 0 0 383 c0 211 3 387 7 391 4 3
54 5 112 4 l105 -3 101 -262z m2285 197 l0 -70 -90 0 -90 0 0 -320 0 -320 -80
0 -80 0 0 320 0 320 -90 0 -90 0 0 70 0 70 260 0 260 0 0 -70z m384 53 c9 -31
206 -756 206 -760 0 -2 -39 -2 -87 -1 l-87 3 -20 83 -20 83 -110 -3 -110 -3
-20 -82 -20 -83 -84 0 c-75 0 -83 2 -78 18 3 9 51 181 106 381 56 200 103 368
106 373 3 4 52 8 109 8 90 0 104 -2 109 -17z m676 -53 l0 -70 -90 0 -90 0 0
-320 0 -320 -80 0 -80 0 0 320 0 320 -90 0 -90 0 0 70 0 70 260 0 260 0 0 -70z
m500 5 l0 -65 -130 0 -130 0 0 -90 0 -90 120 0 120 0 0 -65 0 -65 -120 0 -120
0 0 -110 0 -110 135 0 135 0 0 -60 0 -60 -220 0 -220 0 0 383 c0 211 3 387 7
390 3 4 100 7 215 7 l208 0 0 -65z"/>
<path d="M3471 1069 c-1 -6 -54 -243 -66 -296 -5 -22 -3 -23 70 -23 68 0 76 2
71 18 -3 9 -19 78 -36 152 -31 134 -38 161 -39 149z"/>
</g>
</svg>
