<?xml version="1.0" standalone="no"?>
<!DOCTYPE svg PUBLIC "-//W3C//DTD SVG 20010904//EN"
 "http://www.w3.org/TR/2001/REC-SVG-20010904/DTD/svg10.dtd">
<svg version="1.0" xmlns="http://www.w3.org/2000/svg"
 width="1217.000000pt" height="935.000000pt" viewBox="0 0 1217.000000 935.000000"
 preserveAspectRatio="xMidYMid meet">

<g transform="translate(0.000000,935.000000) scale(0.100000,-0.100000)"
fill="#000000" stroke="none">
<path d="M7592 8348 c-12 -6 -25 -22 -27 -35 -3 -12 -7 -34 -10 -47 -6 -30
-27 -38 -62 -25 -36 13 -67 -3 -88 -48 -18 -38 -13 -68 16 -83 30 -16 25 -58
-8 -71 -35 -13 -43 -26 -43 -71 0 -49 28 -78 74 -78 40 0 49 -15 40 -70 -6
-34 -10 -39 -39 -44 -38 -7 -52 -21 -57 -56 -3 -23 -7 -25 -50 -25 -64 0 -102
-34 -93 -83 5 -27 1 -43 -19 -73 -14 -21 -26 -52 -26 -69 0 -37 31 -70 66 -70
26 0 26 -1 20 -49 -6 -45 -4 -51 21 -71 18 -14 35 -19 50 -16 13 3 34 9 47 12
20 5 27 0 40 -24 8 -16 25 -32 37 -35 28 -8 89 17 89 36 0 8 8 25 19 38 16 20
21 21 35 10 21 -18 63 -6 77 22 6 12 13 23 14 25 2 2 14 -8 28 -22 19 -19 36
-26 66 -26 49 0 80 -34 62 -69 -20 -37 -13 -68 24 -100 20 -17 40 -31 45 -31
4 0 15 -3 23 -6 8 -3 30 8 51 26 49 43 84 39 112 -15 19 -37 24 -40 66 -43 37
-2 51 2 77 23 26 22 31 33 29 66 -1 28 4 44 18 54 18 14 28 14 87 -1 29 -7 75
28 93 73 12 29 12 37 0 61 -8 16 -22 34 -30 41 -31 26 -17 59 42 100 27 19 32
29 32 62 0 46 -21 94 -46 103 -9 4 -31 4 -48 0 -24 -4 -36 -1 -50 15 -17 18
-18 27 -9 66 13 56 1 82 -52 112 -22 13 -44 23 -48 23 -4 0 -24 -16 -44 -35
-21 -20 -43 -33 -51 -30 -7 3 -20 5 -28 5 -8 0 -21 15 -29 33 -21 51 -38 61
-95 53 -48 -6 -50 -6 -50 17 0 13 -9 32 -20 42 -30 28 -26 64 9 76 35 12 51
51 40 94 -10 36 -34 55 -70 55 -37 0 -53 22 -45 64 8 44 0 63 -35 81 -39 21
-73 19 -94 -5 -26 -29 -63 -26 -71 5 -10 42 -61 57 -112 33z m252 -76 c3 -5
-13 -26 -34 -47 -35 -34 -40 -36 -40 -18 0 41 58 91 74 65z m-190 -43 c-29
-31 -40 -37 -27 -16 29 45 38 55 46 50 5 -3 -4 -18 -19 -34z m86 -28 c0 -12
-20 -25 -27 -18 -7 7 6 27 18 27 5 0 9 -4 9 -9z m-230 -25 c0 -14 -28 -42 -35
-34 -2 2 -2 14 2 26 6 24 33 31 33 8z m308 -11 c-12 -27 -28 -34 -28 -12 0 14
20 37 32 37 4 0 2 -11 -4 -25z m-46 -68 c26 -33 31 -71 14 -110 -17 -42 -41
-57 -93 -57 -30 0 -46 7 -66 28 -42 43 -44 79 -8 129 17 23 40 43 53 45 36 6
81 -10 100 -35z m121 1 c-10 -11 -19 -15 -21 -8 -5 15 18 41 30 34 5 -3 1 -15
-9 -26z m67 18 c0 -2 -7 -9 -15 -16 -13 -11 -14 -10 -9 4 5 14 24 23 24 12z
m-434 -101 c-29 -44 -59 -75 -73 -75 -19 0 -18 2 34 59 48 53 69 61 39 16z
m49 -85 c3 -5 1 -10 -4 -10 -6 0 -11 5 -11 10 0 6 2 10 4 10 3 0 8 -4 11 -10z
m351 -58 c-23 -23 -33 -6 -10 19 12 13 20 16 22 9 3 -7 -3 -19 -12 -28z m-292
19 c3 -4 -6 -19 -19 -31 -26 -24 -33 -14 -15 21 11 20 25 25 34 10z m116 -8
c0 -9 -52 -63 -60 -63 -4 0 -5 13 -2 29 4 28 8 31 55 40 4 0 7 -2 7 -6z m-90
-43 c0 -11 -7 -20 -15 -20 -18 0 -19 12 -3 28 16 16 18 15 18 -8z m-119 -17
c-8 -15 -10 -15 -11 -2 0 17 10 32 18 25 2 -3 -1 -13 -7 -23z m229 24 c0 -2
-11 -18 -25 -37 -14 -19 -25 -28 -25 -20 0 8 10 24 22 37 20 22 28 27 28 20z
m320 -23 c11 -13 5 -24 -47 -77 -33 -34 -86 -93 -118 -131 -33 -37 -61 -63
-63 -58 -5 17 73 125 112 155 31 24 35 32 29 58 -10 53 54 93 87 53z m-155 -8
c16 -1 20 -8 20 -36 0 -27 -6 -37 -27 -49 -24 -14 -30 -14 -62 2 -29 14 -36
22 -36 46 0 35 24 53 60 45 14 -4 34 -7 45 -8z m375 -26 c0 -5 -4 -10 -8 -10
-5 0 -26 -22 -48 -50 -42 -53 -60 -63 -48 -28 17 56 104 129 104 88z m-620
-55 c12 -22 25 -31 49 -33 26 -3 31 -7 26 -20 -19 -43 -16 -60 13 -94 l31 -34
-22 -34 -22 -34 -5 35 c-8 48 -16 57 -53 67 -30 8 -32 11 -29 50 4 51 -9 76
-48 92 -28 12 -29 14 -13 26 27 21 55 13 73 -21z m470 19 c0 -11 -64 -84 -87
-100 -42 -27 -37 -7 13 50 41 48 74 70 74 50z m-597 -24 c8 0 8 -3 0 -11 -13
-13 -43 -5 -43 12 0 6 7 8 16 5 9 -3 21 -6 27 -6z m769 -12 c-7 -7 -12 -8 -12
-2 0 14 12 26 19 19 2 -3 -1 -11 -7 -17z m-162 -37 c-6 -12 -17 -21 -25 -21
-21 0 -19 10 7 37 25 26 36 16 18 -16z m89 -11 c-22 -39 -39 -51 -39 -28 0 11
48 68 58 68 2 0 -7 -18 -19 -40z m-769 -5 c0 -14 -46 -55 -62 -55 -5 0 3 18
19 39 27 38 43 44 43 16z m120 18 c-1 -17 -48 -65 -54 -55 -4 6 6 22 21 36 30
28 33 30 33 19z m264 -2 c6 -10 -22 -37 -29 -29 -8 7 5 38 15 38 5 0 11 -4 14
-9z m-534 -61 c-13 -25 -27 -33 -35 -21 -9 15 16 50 32 44 9 -4 10 -10 3 -23z
m180 10 c0 -5 -4 -10 -10 -10 -5 0 -10 5 -10 10 0 6 5 10 10 10 6 0 10 -4 10
-10z m840 1 c0 -6 -4 -13 -10 -16 -5 -3 -10 1 -10 9 0 9 5 16 10 16 6 0 10 -4
10 -9z m-66 -35 c-3 -9 -10 -13 -16 -10 -5 3 -4 12 3 20 15 18 22 13 13 -10z
m-700 -1 c-4 -8 -11 -15 -16 -15 -6 0 -5 6 2 15 7 8 14 15 16 15 2 0 1 -7 -2
-15z m610 -6 c37 -29 56 -71 56 -125 0 -41 -5 -51 -39 -85 -35 -35 -44 -39
-89 -39 -40 0 -57 5 -83 27 -107 91 -56 243 82 243 32 0 55 -7 73 -21z m216 5
c0 -11 -53 -74 -62 -74 -5 0 1 18 13 40 13 22 29 40 36 40 7 0 13 -3 13 -6z
m65 -14 c3 -6 -24 -45 -62 -87 -37 -42 -108 -122 -158 -177 -119 -134 -129
-141 -95 -63 13 29 33 54 55 67 20 12 50 43 67 68 38 57 167 202 178 202 5 0
12 -5 15 -10z m-956 -26 c57 -47 26 -134 -48 -136 -86 -3 -107 120 -26 152 32
14 42 12 74 -16z m-202 -18 c-7 -14 -13 -23 -15 -21 -7 6 9 45 18 45 4 0 3
-11 -3 -24z m336 7 c3 -5 -8 -24 -24 -43 l-29 -34 0 30 c0 16 5 35 12 42 14
14 35 16 41 5z m-392 -76 c-16 -16 -26 0 -10 19 9 11 15 12 17 4 2 -6 -1 -17
-7 -23z m447 -43 c-1 -33 -3 -35 -15 -18 -21 29 -17 42 14 53 1 1 2 -15 1 -35z
m167 -24 c-25 -39 -50 -59 -61 -47 -3 3 13 26 37 51 23 26 44 44 46 42 3 -2
-7 -23 -22 -46z m-95 11 c0 -6 -4 -13 -10 -16 -5 -3 -10 1 -10 9 0 9 5 16 10
16 6 0 10 -4 10 -9z m-382 -33 c-2 -6 -10 -14 -16 -16 -7 -2 -10 2 -6 12 7 18
28 22 22 4z m162 -15 c-11 -16 -31 -43 -43 -60 -20 -30 -47 -44 -47 -26 0 7
101 113 108 113 2 0 -6 -12 -18 -27z m-50 4 c0 -2 -11 -14 -25 -27 l-25 -23 0
26 c0 22 5 27 25 27 14 0 25 -1 25 -3z m150 -7 c0 -5 -7 -10 -16 -10 -8 0 -12
5 -9 10 3 6 10 10 16 10 5 0 9 -4 9 -10z m310 1 c0 -5 -7 -11 -14 -14 -10 -4
-13 -1 -9 9 6 15 23 19 23 5z m-638 -23 c-7 -7 -12 -8 -12 -2 0 14 12 26 19
19 2 -3 -1 -11 -7 -17z m1057 5 c-39 -52 -89 -96 -89 -78 0 10 82 95 92 95 6
0 4 -8 -3 -17z m-959 -3 c0 -5 -4 -10 -10 -10 -5 0 -10 5 -10 10 0 6 5 10 10
10 6 0 10 -4 10 -10z m474 -14 c-6 -16 -24 -23 -24 -8 0 10 22 33 27 28 2 -2
1 -11 -3 -20z m116 -12 c0 -3 -11 -19 -25 -36 -28 -33 -34 -21 -9 17 15 23 34
33 34 19z m376 -39 c-7 -18 -26 -20 -26 -2 0 18 24 41 28 27 2 -6 1 -17 -2
-25z m-317 -22 c-18 -21 -35 -40 -36 -42 -2 -2 -6 -2 -9 2 -12 12 37 77 59 77
19 0 18 -4 -14 -37z m51 -7 c0 -22 -35 -60 -49 -52 -8 5 -5 16 11 36 25 32 38
37 38 16z m-151 -60 c-18 -31 -49 -49 -49 -29 0 9 63 74 67 69 2 -2 -6 -20
-18 -40z m185 -31 c-4 -8 -8 -15 -10 -15 -2 0 -4 7 -4 15 0 8 4 15 10 15 5 0
7 -7 4 -15z m64 -36 c-27 -17 -36 -8 -15 16 18 19 23 21 25 8 2 -8 -2 -19 -10
-24z"/>
<path d="M4815 8307 c-19 -19 -35 -42 -35 -50 0 -26 20 -71 43 -95 21 -22 22
-31 19 -174 -1 -83 -5 -155 -8 -160 -3 -4 -11 -8 -18 -8 -9 0 -13 25 -15 95
-3 142 -29 185 -116 185 -21 0 -44 9 -63 25 -79 66 -172 25 -172 -77 0 -46 23
-75 70 -89 36 -11 41 -10 81 20 81 59 109 40 109 -73 l0 -81 -35 -1 c-40 -1
-47 11 -11 20 36 9 44 45 15 67 -20 15 -43 19 -131 19 -105 0 -107 0 -137 -30
l-30 -30 0 -275 c-1 -313 5 -348 61 -359 17 -3 113 -6 215 -6 l184 0 -3 -37
-3 -38 -72 2 c-63 3 -75 0 -99 -20 -32 -28 -28 -52 11 -67 15 -6 113 -10 219
-10 174 0 195 2 209 18 46 50 2 85 -102 81 l-66 -3 -3 36 -3 36 188 -1 c122 0
198 4 216 11 50 21 55 51 56 348 1 267 1 271 -22 305 l-23 34 -113 3 c-89 2
-119 -1 -137 -13 -44 -28 -21 -75 36 -75 12 0 18 -4 15 -10 -7 -11 -54 -13
-79 -4 -20 8 -22 116 -3 154 18 35 58 38 90 6 35 -35 72 -42 114 -22 38 18 67
72 58 109 -4 13 -16 36 -29 52 -19 23 -31 28 -69 29 -38 1 -51 -4 -76 -28 -23
-22 -41 -29 -78 -32 -38 -3 -53 -10 -75 -34 -29 -31 -35 -70 -28 -187 2 -38
-1 -43 -19 -43 -20 0 -21 5 -21 141 0 140 0 142 31 196 24 42 30 61 25 87 -8
44 -45 76 -95 83 -36 5 -44 2 -76 -30z m80 -67 c3 -5 1 -10 -4 -10 -6 0 -11 5
-11 10 0 6 2 10 4 10 3 0 8 -4 11 -10z m0 -248 l0 -207 53 3 52 4 0 64 c0 36
4 64 10 64 6 0 10 -28 10 -65 0 -55 3 -65 18 -66 17 -1 63 0 155 2 26 1 51 -1
54 -5 3 -3 6 -43 5 -88 0 -46 -1 -139 -1 -207 -1 -107 -3 -122 -17 -117 -8 3
-13 2 -10 -2 2 -4 -155 -7 -350 -7 -347 0 -354 0 -355 20 -3 47 3 400 7 405 9
9 87 1 94 -11 6 -8 9 -8 14 0 4 6 26 11 49 10 69 -2 67 -5 67 70 0 41 5 73 11
77 8 5 9 -13 4 -65 -7 -69 -6 -71 18 -80 14 -5 38 -6 54 -2 26 7 29 12 36 77
5 38 7 126 5 197 -2 78 1 129 7 131 6 3 10 5 10 5 0 1 0 -92 0 -207z m-355
110 c-14 -2 -28 -9 -32 -16 -5 -7 -8 -5 -8 6 0 18 26 28 50 19 10 -4 7 -7 -10
-9z m84 -27 c19 -8 39 -15 43 -14 39 6 61 -4 78 -34 10 -19 15 -40 12 -48 -4
-9 -6 -8 -7 6 -2 38 -26 57 -77 61 -35 2 -53 -1 -68 -15 -36 -32 -48 -36 -30
-8 10 16 14 34 10 47 -8 24 -7 24 39 5z m526 -24 c0 -9 -8 -11 -26 -7 -40 10
-91 -11 -103 -42 -8 -24 -10 -25 -10 -5 -1 33 51 69 99 68 27 0 40 -5 40 -14z
m-590 5 c0 -3 -4 -8 -10 -11 -5 -3 -10 -1 -10 4 0 6 5 11 10 11 6 0 10 -2 10
-4z m-24 -63 c-8 -8 -36 5 -36 17 0 7 6 7 21 0 11 -7 18 -14 15 -17z m97 -104
c9 0 17 -5 17 -10 0 -7 -34 -10 -87 -9 -111 2 -123 0 -123 -19 -7 -203 -4
-521 3 -538 11 -24 54 -37 120 -36 20 0 37 -4 37 -8 0 -5 -29 -9 -65 -8 -53 1
-70 6 -90 25 l-25 23 0 271 0 271 24 23 c22 20 33 22 98 18 40 -2 81 -4 91 -3z
m552 1 c4 -6 10 -8 15 -5 5 3 32 6 60 6 36 1 56 -4 70 -16 19 -17 20 -32 20
-290 0 -246 -2 -275 -18 -295 -17 -21 -24 -22 -227 -23 l-210 -2 -1 -75 -2
-75 89 3 c52 1 89 -2 89 -7 0 -16 -28 -18 -200 -17 -99 1 -167 5 -170 11 -3 6
27 11 79 12 46 2 87 5 90 9 3 3 6 36 6 72 l0 67 -128 2 c-71 1 -131 4 -135 7
-6 7 30 8 405 8 252 0 283 2 297 17 13 14 16 61 18 285 4 317 10 301 -108 290
-48 -4 -77 -3 -90 5 -18 12 -17 12 4 8 12 -3 22 -1 22 4 0 12 17 11 25 -1z
m-643 -60 c-24 -3 -48 -13 -53 -21 -7 -12 -9 -11 -9 2 0 24 10 29 59 28 l46
-2 -43 -7z m78 0 c0 -5 -4 -10 -9 -10 -6 0 -13 5 -16 10 -3 6 1 10 9 10 9 0
16 -4 16 -10z m654 4 c9 -3 16 -11 16 -16 0 -6 -6 -6 -14 1 -10 8 -30 10 -60
6 -31 -5 -46 -4 -46 4 0 12 77 15 104 5z m23 -106 c-3 -7 -5 -2 -5 12 0 14 2
19 5 13 2 -7 2 -19 0 -25z m-820 -100 c-3 -7 -5 -2 -5 12 0 14 2 19 5 13 2 -7
2 -19 0 -25z m820 -5 c-3 -10 -5 -4 -5 12 0 17 2 24 5 18 2 -7 2 -21 0 -30z
m-820 -90 c-3 -10 -5 -4 -5 12 0 17 2 24 5 18 2 -7 2 -21 0 -30z m820 -5 c-3
-8 -6 -5 -6 6 -1 11 2 17 5 13 3 -3 4 -12 1 -19z m-747 -201 c39 -4 38 -4 -9
-3 -39 1 -56 5 -59 16 -4 12 -2 13 9 3 8 -6 35 -14 59 -16z m734 4 c-15 -14
-62 -22 -69 -11 -3 6 4 10 17 10 13 0 30 4 38 10 17 10 28 4 14 -9z m-611 -8
c-13 -2 -35 -2 -50 0 -16 2 -5 4 22 4 28 0 40 -2 28 -4z m100 0 c-13 -2 -33
-2 -45 0 -13 2 -3 4 22 4 25 0 35 -2 23 -4z m110 0 c-13 -2 -35 -2 -50 0 -16
2 -5 4 22 4 28 0 40 -2 28 -4z m85 0 c-10 -2 -26 -2 -35 0 -10 3 -2 5 17 5 19
0 27 -2 18 -5z m100 0 c-10 -2 -26 -2 -35 0 -10 3 -2 5 17 5 19 0 27 -2 18 -5z
m110 0 c-10 -2 -26 -2 -35 0 -10 3 -2 5 17 5 19 0 27 -2 18 -5z"/>
<path d="M5189 7763 c-13 -16 -12 -17 4 -4 9 7 17 15 17 17 0 8 -8 3 -21 -13z"/>
<path d="M5096 7427 c3 -10 9 -15 12 -12 3 3 0 11 -7 18 -10 9 -11 8 -5 -6z"/>
<path d="M4870 7389 c0 -5 5 -7 10 -4 6 3 10 8 10 11 0 2 -4 4 -10 4 -5 0 -10
-5 -10 -11z"/>
<path d="M1960 6909 c-66 -11 -123 -47 -147 -91 -16 -29 -18 -70 -21 -363 -4
-328 4 -448 32 -484 8 -11 12 10 16 84 4 75 8 100 20 103 12 4 13 3 2 -10 -11
-14 -7 -16 28 -20 23 -2 44 0 46 4 9 15 57 8 69 -9 13 -17 14 -17 32 0 11 9
26 17 34 17 8 1 32 25 54 55 25 33 48 55 60 55 15 0 8 -12 -33 -53 -47 -47
-51 -55 -38 -67 9 -7 16 -19 16 -26 0 -8 5 -14 10 -14 6 0 10 9 10 20 0 11 6
20 14 20 7 0 26 17 42 37 16 21 30 31 32 24 2 -7 -6 -23 -19 -37 l-22 -24 29
0 c17 0 24 -3 17 -8 -7 -4 -12 -30 -11 -60 0 -52 0 -53 19 -36 13 12 19 31 19
61 0 27 4 43 13 43 6 1 34 30 61 65 43 57 66 78 66 59 0 -4 -23 -33 -51 -65
-35 -41 -46 -59 -35 -59 10 0 28 12 42 28 l26 27 -21 -36 c-43 -74 -20 -70 44
8 113 134 131 153 149 153 13 0 2 -17 -38 -63 -31 -35 -52 -68 -48 -72 4 -5 2
-5 -4 -2 -6 3 -35 -24 -66 -61 -53 -65 -55 -69 -61 -144 l-7 -78 153 0 c183 0
240 13 286 65 16 19 35 51 40 72 13 47 14 681 2 736 -14 58 -57 113 -104 134
-38 16 -77 18 -372 20 -181 0 -355 -3 -385 -8z m-9 -66 c-43 -59 -69 -88 -75
-82 -10 9 41 93 61 101 32 12 35 8 14 -19z m108 10 c-45 -58 -113 -133 -121
-133 -5 0 17 34 49 75 32 41 64 75 72 75 11 0 11 -3 0 -17z m111 9 c0 -4 -23
-30 -52 -57 l-51 -50 39 57 c34 51 64 74 64 50z m110 3 c0 -2 -9 -9 -20 -15
-16 -9 -18 -8 -14 5 5 13 34 22 34 10z m151 -32 c-17 -21 -58 -67 -91 -103
-45 -48 -53 -54 -33 -25 60 87 127 165 140 165 10 0 5 -12 -16 -37z m127 20
c-8 -10 -26 -31 -40 -48 -129 -152 -148 -171 -179 -180 -27 -8 -37 -18 -47
-50 -13 -39 -47 -85 -64 -85 -4 0 -8 14 -8 31 0 24 11 44 43 78 23 26 53 60
66 77 14 16 58 66 99 112 67 73 78 82 110 82 32 0 34 -1 20 -17z m84 -20 c-25
-35 -72 -79 -72 -68 0 15 65 94 78 95 9 0 8 -8 -6 -27z m-341 0 c-14 -28 -162
-183 -173 -183 -12 0 51 77 122 148 56 56 66 62 51 35z m39 -31 c0 -7 -97
-129 -190 -239 -10 -13 -26 -23 -35 -23 -10 0 8 27 52 78 37 43 90 103 117
135 50 58 56 63 56 49z m420 0 c0 -4 -16 -23 -35 -42 -41 -40 -46 -29 -8 18
26 31 43 41 43 24z m-620 -32 c0 -5 -5 -10 -11 -10 -5 0 -7 5 -4 10 3 6 8 10
11 10 2 0 4 -4 4 -10z m640 -58 c0 -5 -9 -17 -20 -27 -23 -21 -26 -14 -8 15
13 20 28 27 28 12z m-770 -20 c0 -5 -22 -35 -50 -66 -27 -31 -50 -52 -50 -47
0 9 88 117 98 120 1 1 2 -3 2 -7z m-158 -24 c-7 -7 -12 -8 -12 -2 0 14 12 26
19 19 2 -3 -1 -11 -7 -17z m693 -66 c-14 -16 -32 -37 -39 -48 -8 -10 -17 -16
-21 -12 -4 4 12 30 36 58 24 28 45 47 47 41 2 -5 -8 -23 -23 -39z m-504 1
c-15 -26 -168 -193 -177 -193 -13 0 26 51 98 126 82 86 97 98 79 67z m602 4
c-28 -46 -70 -97 -80 -97 -21 0 -15 13 32 63 43 46 64 61 48 34z m137 -2 c0
-8 -4 -15 -10 -15 -5 0 -7 7 -4 15 4 8 8 15 10 15 2 0 4 -7 4 -15z m-920 -39
c0 -3 -4 -8 -10 -11 -5 -3 -10 -1 -10 4 0 6 5 11 10 11 6 0 10 -2 10 -4z m814
-46 c-31 -44 -54 -57 -54 -31 0 11 72 81 82 81 4 0 -8 -23 -28 -50z m59 -45
c-26 -24 -50 -41 -52 -39 -2 2 18 29 45 61 38 44 50 53 52 39 3 -12 -13 -33
-45 -61z m-553 26 c0 -4 -21 -16 -47 -26 -60 -22 -83 -42 -83 -71 0 -26 25
-46 82 -64 21 -6 40 -16 44 -21 15 -24 -11 -20 -88 15 -150 68 -154 78 -55
120 34 15 76 33 92 41 35 16 55 18 55 6z m356 -34 c57 -25 100 -50 102 -59 2
-11 -24 -27 -90 -56 -113 -49 -113 -49 -113 -37 0 6 24 20 54 32 97 39 95 83
-4 121 -27 11 -51 24 -53 31 -5 16 -6 16 104 -32z m-219 1 c-3 -8 -6 -5 -6 6
-1 11 2 17 5 13 3 -3 4 -12 1 -19z m441 -27 c-26 -37 -210 -232 -215 -227 -6
5 12 27 126 153 52 57 96 101 99 99 2 -3 -2 -14 -10 -25z m-585 -26 c-10 -13
-24 -25 -30 -25 -20 0 -15 38 5 43 39 10 43 7 25 -18z m275 19 c34 -10 26 -32
-23 -62 -25 -15 -45 -32 -45 -38 0 -5 -13 -23 -30 -39 -33 -32 -35 -29 -19 29
12 42 65 116 83 116 6 0 21 -3 34 -6z m-218 -11 c0 -5 -9 -19 -20 -33 -24 -32
-38 -19 -13 14 18 25 33 33 33 19z m59 -105 c-6 -23 -14 -48 -20 -57 -8 -13
-9 -13 -5 4 3 11 8 34 12 50 7 31 13 45 19 45 1 0 -1 -19 -6 -42z m-326 16 c3
-3 -8 -21 -25 -40 -39 -42 -48 -37 -18 10 21 35 31 42 43 30z m766 -32 c-23
-33 -140 -154 -144 -150 -2 2 30 43 72 91 42 48 78 85 81 83 2 -3 -2 -13 -9
-24z m-721 -40 c-18 -20 -39 -42 -46 -50 -7 -8 -15 -12 -18 -10 -9 9 77 109
87 102 7 -4 -3 -21 -23 -42z m102 10 c0 -5 -25 -35 -56 -68 -61 -65 -61 -57
-1 24 36 48 57 64 57 44z m666 -87 c-3 -9 -11 -13 -16 -10 -8 5 -7 11 1 21 14
18 24 11 15 -11z m-498 -25 c-7 -11 -17 -20 -22 -20 -5 0 -1 9 9 20 10 11 20
20 22 20 2 0 -2 -9 -9 -20z m220 -59 c-18 -25 -90 -102 -113 -121 -31 -25 -7
9 55 78 52 58 86 84 58 43z m135 -19 c-67 -91 -109 -141 -120 -146 -28 -11
-10 17 57 91 38 43 70 81 70 86 0 4 5 7 11 7 6 0 -2 -17 -18 -38z m-381 -14
c-7 -7 -12 -8 -12 -2 0 14 12 26 19 19 2 -3 -1 -11 -7 -17z m458 -13 c0 -2
-19 -29 -41 -60 -27 -35 -49 -55 -62 -55 -19 0 -18 3 10 33 17 17 41 44 53 60
21 24 40 35 40 22z m31 -68 c-10 -9 -11 -8 -5 6 3 10 9 15 12 12 3 -3 0 -11
-7 -18z m-306 -21 c-10 -14 -24 -26 -33 -26 -11 0 -8 8 13 30 33 35 44 33 20
-4z"/>
<path d="M3705 6888 c-3 -8 -4 -61 -3 -119 3 -90 5 -104 21 -107 16 -3 17 6
15 114 -2 83 -7 119 -15 122 -7 2 -15 -3 -18 -10z"/>
<path d="M3786 6892 c-2 -4 -3 -57 -3 -117 2 -96 4 -110 20 -113 15 -3 17 6
18 80 l0 83 22 -42 c11 -24 26 -43 32 -43 7 0 20 16 31 35 20 38 35 46 32 18
-1 -10 0 -44 0 -75 2 -44 6 -58 17 -58 13 0 15 20 15 120 0 102 -2 120 -15
120 -9 0 -24 -14 -33 -31 -9 -17 -24 -40 -33 -52 -16 -20 -17 -19 -44 31 -26
48 -47 64 -59 44z"/>
<path d="M4020 6780 c0 -100 3 -120 15 -120 11 0 15 12 15 45 l0 45 39 0 c31
0 44 6 60 26 12 15 21 37 21 49 0 12 -9 34 -21 49 -18 22 -28 26 -75 26 l-54
0 0 -120z m98 81 c8 -5 12 -22 10 -42 -3 -31 -6 -34 -40 -37 l-38 -3 0 45 c0
44 1 46 28 46 15 0 33 -4 40 -9z"/>
<path d="M4200 6781 c0 -132 -2 -128 70 -125 63 3 62 3 57 17 -2 7 -21 12 -48
12 l-44 0 -3 108 c-2 86 -6 107 -17 107 -12 0 -15 -21 -15 -119z"/>
<path d="M4360 6780 l0 -120 75 0 c43 0 75 4 75 10 0 11 -4 12 -70 14 -44 1
-45 2 -48 38 -3 35 -2 37 30 40 42 4 43 22 1 26 -31 3 -33 6 -33 42 l0 39 55
3 c81 4 73 22 -12 26 l-73 3 0 -121z"/>
<path d="M4540 6780 c0 -99 3 -120 15 -120 11 0 15 18 17 83 l3 82 23 -42 c12
-24 27 -43 32 -43 5 0 20 19 32 43 l23 42 3 -82 c2 -65 6 -83 17 -83 12 0 15
21 15 120 0 139 -12 154 -58 70 -15 -27 -30 -50 -34 -50 -4 0 -19 23 -33 50
-43 84 -55 69 -55 -70z"/>
<path d="M4770 6780 l0 -120 33 -1 c17 -1 48 -2 67 -3 25 -1 35 3 35 14 0 11
-12 15 -50 15 l-50 0 -3 38 c-3 35 -2 37 27 37 21 0 31 5 31 15 0 10 -10 15
-30 15 -28 0 -30 2 -30 40 l0 40 55 0 c42 0 55 3 55 15 0 12 -14 15 -70 15
l-70 0 0 -120z"/>
<path d="M4949 6893 c-2 -14 -2 -68 0 -150 1 -67 4 -83 16 -83 12 0 15 15 15
78 l0 77 43 -77 c28 -51 48 -78 60 -78 15 0 17 12 17 121 0 109 -2 120 -17
117 -15 -3 -19 -17 -23 -76 l-5 -72 -38 75 c-22 41 -45 75 -53 75 -8 0 -14 -3
-15 -7z"/>
<path d="M5130 6885 c0 -10 10 -15 30 -15 l30 0 0 -105 c0 -87 3 -105 15 -105
17 0 16 -1 20 120 l2 85 32 3 c19 2 31 8 28 15 -2 8 -32 13 -80 15 -64 2 -77
0 -77 -13z"/>
<path d="M5319 6798 c-17 -57 -33 -111 -36 -120 -7 -28 26 -22 37 7 8 21 16
25 50 25 34 0 42 -4 50 -25 5 -14 16 -25 25 -25 20 0 20 -5 -21 126 -29 93
-39 114 -54 114 -16 0 -25 -19 -51 -102z m70 -2 c15 -59 16 -56 -20 -56 -28 0
-31 3 -25 23 4 12 9 34 12 50 9 39 20 33 33 -17z"/>
<path d="M5457 6893 c-14 -13 -6 -22 24 -25 l31 -3 3 -100 c2 -83 5 -101 19
-103 14 -3 16 10 16 102 l0 106 30 0 c20 0 30 5 30 15 0 12 -15 15 -73 15 -41
0 -77 -3 -80 -7z"/>
<path d="M5640 6781 c0 -115 1 -121 20 -121 20 0 21 5 18 117 -3 103 -5 118
-20 121 -16 3 -18 -8 -18 -117z"/>
<path d="M5740 6880 c-17 -17 -20 -33 -20 -104 0 -79 2 -86 26 -105 35 -28 69
-26 99 4 22 21 25 33 25 100 0 67 -3 79 -25 100 -30 31 -77 33 -105 5z m74
-16 c13 -5 16 -22 16 -83 0 -75 -9 -101 -36 -101 -29 0 -44 32 -44 91 0 86 17
111 64 93z"/>
<path d="M5917 6894 c-4 -4 -7 -58 -7 -121 0 -105 1 -113 20 -113 17 0 19 8
22 73 l3 72 38 -73 c28 -53 43 -72 55 -70 15 3 17 18 17 118 0 96 -3 115 -15
115 -12 0 -16 -17 -20 -75 l-5 -75 -40 74 c-39 73 -54 89 -68 75z"/>
<path d="M6870 6780 l0 -120 55 0 c81 0 95 18 95 118 0 106 -12 122 -91 122
l-59 0 0 -120z m110 71 c13 -25 13 -102 0 -136 -8 -22 -15 -26 -42 -23 l-33 3
-3 88 -3 87 35 0 c25 0 38 -6 46 -19z"/>
<path d="M7064 6887 c-2 -7 -3 -60 -2 -118 l3 -104 73 -3 c57 -2 73 0 70 10
-3 8 -25 14 -56 16 l-52 3 0 40 c0 37 2 39 30 39 38 0 40 18 3 22 -24 3 -28 8
-31 40 l-3 37 52 3 c31 2 54 8 57 16 6 18 -137 17 -144 -1z"/>
<path d="M7226 6892 c-2 -4 12 -58 32 -120 31 -97 39 -112 56 -110 15 2 25 23
47 93 41 131 44 145 25 145 -14 0 -32 -49 -70 -185 -3 -10 -56 154 -56 174 0
12 -26 15 -34 3z"/>
<path d="M7430 6780 l0 -120 70 0 c56 0 70 3 70 15 0 12 -13 15 -56 15 l-55 0
3 38 c3 34 6 37 36 40 17 2 32 7 32 12 0 5 -15 10 -32 12 -30 3 -33 6 -36 40
l-3 37 52 3 c31 2 54 8 57 16 3 9 -15 12 -67 12 l-71 0 0 -120z"/>
<path d="M7610 6780 l0 -120 66 0 c48 0 65 3 62 13 -3 6 -25 13 -51 15 l-47 3
0 105 c0 86 -3 104 -15 104 -12 0 -15 -20 -15 -120z"/>
<path d="M7776 6878 c-11 -16 -16 -46 -16 -98 0 -95 14 -120 71 -120 63 0 79
24 79 118 0 100 -14 122 -75 122 -34 0 -47 -5 -59 -22z m92 -20 c15 -15 16
-122 2 -149 -6 -11 -21 -19 -35 -19 -31 0 -45 26 -45 84 0 64 14 96 43 96 13
0 28 -5 35 -12z"/>
<path d="M7952 6783 c2 -97 6 -118 18 -118 10 0 16 13 18 41 3 41 4 42 48 49
40 6 47 11 60 40 10 26 11 41 3 62 -14 38 -25 43 -92 43 l-58 0 3 -117z m116
54 c4 -37 -13 -57 -49 -57 -28 0 -29 2 -29 46 l0 45 38 -3 c32 -3 37 -7 40
-31z"/>
<path d="M8140 6781 c0 -99 3 -121 15 -121 11 0 15 18 17 83 l3 82 23 -42 c12
-24 26 -43 30 -43 5 0 19 19 33 43 l24 42 3 -82 c2 -65 6 -83 17 -83 12 0 15
22 15 121 0 109 -2 120 -17 117 -10 -2 -29 -24 -43 -51 -14 -26 -27 -47 -30
-47 -3 0 -16 21 -30 47 -14 27 -33 49 -42 51 -16 3 -18 -8 -18 -117z"/>
<path d="M8370 6780 l0 -120 70 0 c56 0 70 3 70 15 0 12 -13 15 -56 15 l-55 0
3 38 c3 32 7 37 31 40 15 2 27 7 27 12 0 5 -12 10 -27 12 -24 3 -28 8 -31 41
l-3 37 55 0 c43 0 56 3 56 15 0 12 -14 15 -70 15 l-70 0 0 -120z"/>
<path d="M8550 6780 c0 -98 3 -120 15 -120 11 0 15 18 17 78 l3 77 40 -75 c23
-43 48 -76 58 -78 15 -3 17 8 17 118 0 110 -2 121 -17 118 -13 -2 -18 -14 -19
-38 -1 -19 -2 -53 -3 -75 l-2 -40 -40 78 c-57 112 -69 105 -69 -43z"/>
<path d="M8730 6885 c0 -10 10 -15 30 -15 l29 0 3 -102 c2 -84 6 -103 18 -103
12 0 16 19 18 102 3 102 3 102 29 105 15 2 28 9 31 16 3 9 -17 12 -77 12 -65
0 -81 -3 -81 -15z"/>
<path d="M5466 6539 c-2 -8 -13 -42 -24 -76 -11 -34 -18 -64 -14 -67 3 -3 16
-6 29 -6 13 0 23 -3 23 -6 0 -3 16 -75 35 -160 19 -84 35 -158 35 -163 0 -5
-38 8 -84 29 -144 68 -248 91 -429 97 -125 4 -176 2 -247 -12 -100 -19 -127
-33 -116 -60 5 -14 13 -16 39 -12 17 4 68 13 112 21 221 42 494 -7 697 -124
70 -40 74 -41 98 -25 61 39 212 107 295 130 50 14 131 29 183 32 100 7 127 18
116 47 -7 17 -15 18 -92 12 -158 -12 -345 -66 -459 -132 -38 -22 -42 -23 -47
-7 -9 31 -76 331 -76 341 0 6 9 14 20 17 31 10 24 26 -35 85 -37 37 -56 49
-59 39z"/>
<path d="M9727 6519 c-189 -45 -316 -226 -305 -435 6 -103 35 -175 98 -246 60
-68 140 -111 239 -128 88 -16 171 -2 253 43 56 30 57 31 77 13 13 -12 20 -29
18 -46 -2 -23 26 -54 189 -213 106 -103 198 -187 206 -187 18 0 151 136 146
149 -5 14 -358 351 -367 351 -5 0 -12 -8 -16 -17 -5 -14 33 -55 159 -176 l166
-159 -38 -44 c-20 -25 -42 -43 -49 -42 -7 2 -87 74 -178 161 -139 134 -164
162 -159 181 4 18 -2 29 -28 50 -18 14 -40 33 -49 41 -19 18 -39 19 -39 3 0
-7 -35 -24 -78 -38 -110 -36 -225 -34 -303 3 -70 34 -138 102 -175 176 -26 50
-29 66 -29 156 0 89 3 106 27 156 36 72 105 141 176 176 51 25 68 28 157 28
89 0 106 -3 157 -28 113 -55 193 -165 205 -281 6 -60 9 -63 37 -43 17 12 17
19 6 73 -47 229 -276 376 -503 323z"/>
<path d="M7848 6438 l-58 -42 20 -21 20 -21 -81 -171 -82 -170 -43 5 c-42 4
-44 3 -44 -21 0 -22 6 -26 43 -32 69 -12 186 -53 271 -96 70 -36 81 -39 94
-25 13 13 13 18 2 31 -16 19 -157 88 -218 106 -24 7 -41 17 -39 23 3 6 38 82
78 169 73 154 75 157 102 151 26 -5 27 -4 27 38 0 64 -11 118 -24 117 -6 0
-37 -19 -68 -41z"/>
<path d="M9775 6401 c-91 -16 -173 -80 -215 -167 -32 -66 -34 -169 -3 -235 45
-100 147 -169 253 -172 50 -2 55 0 58 21 2 12 -1 22 -6 22 -14 0 -8 115 6 133
7 8 9 18 4 21 -16 10 0 66 26 86 14 11 40 20 61 20 29 1 41 7 61 35 14 19 28
35 31 35 19 1 25 -110 8 -158 -6 -16 -9 -47 -7 -69 l3 -38 17 31 c13 23 17 60
19 152 2 116 1 123 -24 161 -62 93 -179 142 -292 122z m159 -66 l38 -18 -28
-15 c-39 -20 -53 -41 -54 -78 0 -43 -43 -79 -95 -79 -35 0 -40 3 -43 25 -9 61
-90 93 -135 53 -19 -18 -20 -18 -3 14 20 39 82 93 127 110 46 17 145 11 193
-12z m-274 -316 c0 -41 -21 -67 -37 -47 -13 15 -54 101 -50 103 1 1 11 7 22
13 30 16 65 -20 65 -69z m86 32 c4 -14 15 -35 25 -46 17 -19 30 -117 18 -130
-3 -2 -22 1 -42 7 -33 10 -37 15 -37 43 0 18 -7 38 -15 45 -20 17 -19 66 2 94
22 28 41 23 49 -13z"/>
<path d="M6610 6095 c-17 -21 -8 -30 73 -72 40 -21 109 -66 155 -101 l82 -62
38 19 c126 63 291 100 454 102 87 0 110 4 115 15 3 9 1 20 -5 26 -8 8 -13 7
-18 -5 -9 -24 -56 -23 -52 1 3 15 -6 17 -86 15 -113 -3 -226 -26 -342 -69
-105 -39 -107 -39 -124 -19 -25 30 -249 165 -273 165 -3 0 -10 -7 -17 -15z"/>
<path d="M2142 6050 c0 -14 2 -19 5 -12 2 6 2 18 0 25 -3 6 -5 1 -5 -13z"/>
<path d="M9954 6062 c-14 -9 -26 -72 -14 -72 5 0 16 7 24 16 26 26 17 74 -10
56z"/>
<path d="M1920 6040 c0 -19 3 -21 12 -12 9 9 9 15 0 24 -9 9 -12 7 -12 -12z"/>
<path d="M2026 6044 c-9 -22 3 -32 14 -14 12 19 12 30 1 30 -5 0 -12 -7 -15
-16z"/>
<path d="M2036 5998 c-9 -12 -16 -42 -16 -65 0 -36 3 -43 19 -43 18 0 20 7 18
65 -1 36 -3 65 -4 65 -1 0 -9 -10 -17 -22z"/>
<path d="M2248 5995 c-10 -13 -18 -42 -18 -64 0 -34 3 -41 20 -41 17 0 19 7
18 65 0 36 -1 65 -2 65 -1 0 -9 -11 -18 -25z"/>
<path d="M10170 5994 c-6 -14 -10 -56 -10 -93 0 -63 2 -69 32 -97 28 -24 29
-25 10 -3 -36 42 -39 90 -8 143 31 54 33 76 6 76 -13 0 -24 -10 -30 -26z"/>
<path d="M1920 5971 c-14 -36 -10 -66 10 -66 12 0 14 10 12 45 -4 56 -6 58
-22 21z"/>
<path d="M2141 5985 c-1 -11 -4 -37 -7 -57 -5 -31 -4 -38 10 -38 18 0 19 15 7
75 -5 22 -9 31 -10 20z"/>
<path d="M9958 5933 c-23 -25 -24 -73 -3 -73 20 0 27 20 23 60 -3 32 -3 32
-20 13z"/>
<path d="M4865 5920 c-27 -5 -76 -16 -107 -26 -45 -13 -58 -22 -58 -37 0 -16
-5 -19 -31 -13 -78 15 -288 -149 -387 -303 -49 -77 -81 -153 -107 -256 l-23
-90 -133 -6 c-144 -6 -219 -22 -323 -68 -139 -63 -266 -166 -351 -286 -62 -88
-79 -124 -85 -185 -3 -39 -9 -55 -20 -55 -29 0 -43 -82 -44 -250 -1 -141 2
-169 22 -235 107 -340 380 -570 724 -611 68 -8 119 -8 181 0 l86 10 63 -66
c168 -175 373 -265 613 -267 183 -1 341 48 497 155 l60 40 71 -68 c89 -85 145
-124 250 -173 124 -57 210 -75 357 -74 223 0 418 77 574 224 l51 49 55 -35
c115 -71 299 -124 434 -124 276 0 554 147 704 370 l37 56 135 1 c104 0 153 5
211 21 386 104 646 493 590 880 -52 355 -296 607 -663 686 -16 4 -28 13 -28
20 0 29 -91 194 -141 254 -102 127 -271 237 -429 282 -103 30 -279 37 -385 17
-109 -20 -226 -67 -310 -125 l-69 -47 -91 91 c-172 174 -364 254 -608 254
-189 0 -362 -61 -524 -185 l-73 -55 -62 51 c-74 61 -236 142 -328 164 -78 19
-266 27 -335 15z m1458 -55 c114 -20 214 -58 301 -115 73 -48 185 -154 214
-202 9 -15 22 -30 29 -32 8 -3 42 15 76 40 82 61 179 109 274 136 102 29 295
31 393 4 251 -69 455 -247 547 -478 14 -35 30 -68 37 -74 6 -6 40 -16 75 -23
256 -50 468 -239 558 -496 26 -74 28 -92 28 -230 0 -168 -13 -225 -83 -360
-55 -106 -200 -248 -312 -303 -132 -66 -228 -86 -383 -79 l-128 5 -44 -69
c-141 -218 -365 -345 -631 -356 -179 -8 -315 27 -459 118 -34 21 -69 39 -76
39 -8 0 -37 -23 -64 -51 -124 -127 -297 -210 -478 -228 -258 -26 -483 62 -675
263 l-73 77 -27 -21 c-15 -12 -45 -35 -67 -52 -54 -41 -186 -104 -265 -125
-91 -25 -310 -25 -400 0 -154 42 -320 148 -407 259 -38 48 -51 58 -67 53 -12
-4 -77 -9 -146 -12 -106 -4 -139 -2 -215 16 -462 110 -727 600 -564 1044 121
334 449 546 806 522 101 -6 102 -6 107 17 30 160 40 192 86 284 108 220 324
383 565 425 98 17 282 7 370 -21 100 -31 210 -91 285 -155 35 -30 72 -55 83
-55 10 0 50 27 89 59 181 153 411 216 641 176z"/>
<path d="M4645 5139 c-17 -4 -44 -22 -60 -39 -24 -25 -29 -39 -29 -83 -1 -74
19 -99 111 -143 104 -48 123 -67 123 -120 0 -60 -24 -85 -86 -91 -42 -4 -55
-1 -94 26 -38 25 -47 28 -59 17 -50 -51 97 -124 195 -97 98 26 140 154 80 246
-9 13 -46 38 -83 55 -38 17 -78 36 -89 42 -22 10 -44 47 -44 72 0 25 40 64 72
70 18 3 51 1 73 -5 69 -18 80 -17 80 10 0 19 -8 27 -35 37 -41 14 -112 16
-155 3z"/>
<path d="M4992 5131 c-60 -29 -74 -66 -80 -216 -5 -152 8 -230 47 -268 50 -50
150 -56 217 -12 45 29 54 69 54 247 0 177 -8 206 -64 243 -40 26 -124 29 -174
6z m133 -47 c35 -14 45 -58 45 -208 0 -85 -5 -155 -11 -169 -23 -51 -113 -64
-154 -22 -25 24 -25 27 -25 190 0 163 0 166 25 190 24 25 81 34 120 19z"/>
<path d="M5322 5138 c-13 -13 -18 -481 -6 -512 3 -9 16 -16 29 -16 31 0 35 15
35 135 l0 104 63 3 c56 3 62 5 65 26 3 21 0 22 -61 22 -36 0 -67 4 -69 10 -1
5 -2 48 0 94 l3 85 118 3 c64 2 149 2 189 0 l72 -4 2 -236 c3 -206 5 -237 19
-240 12 -2 15 6 15 40 -2 162 5 308 14 303 6 -4 10 20 10 64 l0 71 63 0 c35 0
68 5 75 12 6 6 13 10 15 7 3 -4 45 -141 102 -334 l23 -80 1 95 c1 81 -4 114
-35 220 -19 69 -40 129 -45 135 -6 6 -17 5 -30 -3 -14 -9 -24 -10 -33 -3 -19
16 -619 14 -634 -1z"/>
<path d="M6495 5142 c-6 -4 -27 -65 -47 -135 l-35 -128 30 3 c30 3 32 6 64
113 37 126 39 141 17 149 -19 7 -17 7 -29 -2z"/>
<path d="M6685 5139 c-4 -6 -23 -63 -44 -127 -33 -107 -36 -124 -31 -202 l5
-85 100 0 99 0 17 -55 c14 -46 20 -55 40 -55 15 0 25 7 27 18 3 17 -130 463
-149 500 -11 19 -54 23 -64 6z m70 -210 c19 -63 35 -122 35 -131 0 -16 -10
-18 -73 -18 -41 0 -76 3 -79 6 -4 3 0 24 7 47 8 23 26 82 40 130 15 49 29 86
31 84 3 -3 21 -56 39 -118z"/>
<path d="M6962 5137 c-9 -11 -12 -79 -10 -268 l3 -254 25 0 c25 0 25 0 30 115
l5 115 42 3 42 3 61 -120 c47 -92 66 -121 81 -121 39 0 34 32 -21 137 -30 56
-52 104 -49 107 2 2 19 11 36 20 42 21 63 63 63 126 0 109 -44 142 -195 148
-80 3 -103 1 -113 -11z m223 -72 c19 -18 25 -35 25 -70 0 -35 -6 -52 -25 -70
-21 -22 -33 -25 -100 -25 l-75 0 0 95 0 95 75 0 c67 0 79 -3 100 -25z"/>
<path d="M7345 5137 c-3 -7 -4 -127 -3 -267 l3 -255 150 0 c143 0 150 1 150
20 0 19 -8 20 -122 23 l-123 3 0 94 0 94 63 3 c56 3 62 5 65 26 3 21 0 22 -62
22 l-66 0 0 95 0 95 114 0 c89 0 116 3 126 15 10 12 10 18 0 30 -17 20 -288
22 -295 2z"/>
<path d="M6221 4943 c-15 -53 -14 -63 8 -63 11 0 26 -9 34 -20 14 -20 14 -20
31 -1 16 17 16 24 4 68 -11 40 -18 48 -40 51 -23 3 -28 -2 -37 -35z"/>
<path d="M6406 4855 c-14 -33 -21 -205 -8 -205 16 0 24 54 20 145 -2 56 -6 74
-12 60z"/>
<path d="M6185 4810 c-12 -19 -19 -200 -8 -200 15 0 33 79 33 144 0 53 -11 78
-25 56z"/>
<path d="M6284 4805 c-4 -8 3 -48 14 -87 l20 -73 1 88 c1 72 -2 87 -14 87 -9
0 -18 -7 -21 -15z"/>
<path d="M4257 4443 c-4 -3 -7 -125 -7 -270 l0 -263 149 0 c83 0 152 4 155 9
4 5 3 16 0 25 -5 13 -26 16 -125 16 l-119 0 0 95 0 94 63 3 c56 3 62 5 65 26
3 21 0 22 -62 22 l-66 0 0 95 0 95 119 0 c101 0 120 3 125 16 14 37 -11 44
-154 44 -75 0 -140 -3 -143 -7z"/>
<path d="M4622 4442 c-9 -7 -12 -67 -10 -268 l3 -259 25 0 25 0 3 195 3 195
98 -190 c55 -104 106 -194 114 -199 8 -5 22 -6 31 -3 14 6 16 35 16 266 0 221
-2 260 -15 265 -41 15 -44 3 -47 -197 l-3 -192 -97 191 c-53 105 -104 194
-113 198 -20 7 -17 7 -33 -2z"/>
<path d="M5116 4440 c-86 -26 -111 -99 -104 -302 5 -152 20 -194 81 -219 47
-20 127 -17 168 7 53 31 70 74 67 174 l-3 85 -80 0 c-73 0 -80 -2 -80 -20 0
-17 8 -20 53 -23 l52 -3 0 -54 c0 -90 -29 -125 -103 -125 -76 0 -97 47 -97
215 0 168 21 215 97 215 54 0 79 -15 97 -59 13 -34 21 -41 42 -41 26 0 26 2
21 43 -11 83 -114 136 -211 107z"/>
<path d="M5417 4443 c-4 -3 -7 -125 -7 -270 l0 -264 28 3 27 3 3 254 c2 254
-1 281 -33 281 -6 0 -15 -3 -18 -7z"/>
<path d="M5560 4431 c-11 -21 -15 -477 -4 -505 10 -25 53 -20 59 7 3 12 5 98
3 190 -2 92 -1 167 2 167 3 0 48 -82 100 -182 52 -100 102 -186 111 -191 9 -6
24 -7 33 -4 14 6 16 34 16 260 0 266 -3 287 -44 271 -14 -5 -16 -30 -16 -197
0 -109 -4 -187 -9 -181 -4 5 -48 86 -96 179 -48 94 -95 178 -103 188 -20 22
-39 22 -52 -2z"/>
<path d="M5977 4443 c-4 -3 -7 -125 -7 -270 l0 -263 149 0 c83 0 152 4 155 9
4 5 3 16 0 25 -5 13 -26 16 -125 16 l-119 0 0 95 0 94 63 3 c56 3 62 5 65 26
3 21 0 22 -62 22 l-66 0 0 95 0 95 119 0 c101 0 120 3 125 16 14 37 -11 44
-154 44 -75 0 -140 -3 -143 -7z"/>
<path d="M6342 4442 c-9 -3 -12 -66 -12 -268 l0 -265 153 3 c144 3 152 4 152
23 0 19 -8 20 -122 23 l-123 3 0 94 0 94 63 3 c56 3 62 5 65 26 3 21 0 22 -62
22 l-66 0 0 95 0 94 123 3 c118 3 122 4 125 26 2 12 0 22 -5 23 -37 3 -281 5
-291 1z"/>
<path d="M6695 4438 c-3 -7 -4 -128 -3 -268 l3 -255 25 0 25 0 3 118 3 117 42
0 42 0 60 -118 c47 -91 65 -118 83 -120 40 -6 35 25 -22 134 -31 59 -55 107
-54 108 76 32 103 71 103 145 -1 109 -46 143 -202 149 -81 3 -104 1 -108 -10z
m222 -72 c23 -20 28 -32 28 -71 0 -39 -5 -51 -28 -71 -24 -20 -39 -24 -98 -24
l-69 0 0 95 0 95 69 0 c59 0 74 -4 98 -24z"/>
<path d="M7081 4436 c-8 -9 -11 -88 -9 -267 l3 -254 25 0 25 0 3 259 c2 201
-1 261 -10 268 -18 11 -24 10 -37 -6z"/>
<path d="M7232 4442 c-9 -7 -12 -67 -10 -268 l3 -259 25 0 25 0 5 194 5 195
100 -195 c90 -174 103 -194 125 -194 l25 0 3 261 c2 235 1 262 -14 268 -39 15
-44 -8 -44 -203 l0 -186 -96 185 c-104 201 -119 222 -152 202z"/>
<path d="M7740 4443 c-14 -3 -37 -14 -53 -25 -51 -37 -57 -62 -57 -245 0 -149
2 -172 20 -200 29 -49 65 -68 129 -67 68 0 108 18 138 63 20 29 23 47 23 127
l0 94 -79 0 c-54 0 -80 -4 -83 -12 -10 -28 4 -38 53 -38 l49 0 0 -65 c0 -57
-3 -69 -25 -90 -18 -19 -35 -25 -70 -25 -35 0 -52 6 -70 25 -25 24 -25 27 -25
188 0 193 5 205 83 214 58 7 93 -13 105 -60 6 -25 14 -33 35 -35 25 -3 27 0
27 32 0 35 -34 87 -69 105 -22 12 -100 20 -131 14z"/>
<path d="M4181 5834 c-40 -41 -92 -106 -117 -144 l-44 -68 -172 73 c-166 70
-173 75 -173 102 0 26 -3 28 -35 26 -74 -5 -120 -15 -120 -25 0 -16 79 -118
91 -118 5 0 12 7 15 15 4 8 12 15 19 15 13 0 333 -135 342 -144 2 -2 -6 -27
-18 -55 -14 -34 -29 -53 -43 -56 -11 -2 -52 -9 -91 -16 -102 -17 -207 -54
-316 -111 -114 -59 -249 -161 -249 -187 0 -38 30 -31 95 22 137 113 322 196
497 223 57 9 109 19 117 23 7 4 24 35 37 70 36 95 109 211 197 312 64 74 76
93 67 105 -7 7 -16 14 -20 14 -4 0 -40 -34 -79 -76z"/>
<path d="M1314 5737 c-2 -7 -3 -60 -2 -118 3 -90 5 -104 21 -107 14 -3 17 4
17 42 0 45 1 46 33 46 52 0 77 24 77 74 0 58 -21 76 -89 76 -33 0 -53 -5 -57
-13z m109 -38 c5 -9 7 -28 3 -42 -5 -23 -12 -27 -41 -27 -35 0 -35 0 -35 46 0
45 0 45 31 42 18 -2 36 -10 42 -19z"/>
<path d="M1500 5630 c0 -100 3 -120 15 -120 11 0 15 12 15 50 0 43 3 50 20 50
14 0 27 -15 45 -50 14 -27 32 -50 40 -50 20 0 19 8 -7 56 l-22 41 22 28 c49
62 15 115 -73 115 l-55 0 0 -120z m110 70 c17 -32 -4 -60 -45 -60 -34 0 -35 1
-35 40 0 39 1 40 35 40 24 0 37 -6 45 -20z"/>
<path d="M1701 5724 c-17 -21 -21 -41 -21 -93 0 -79 15 -112 53 -122 31 -8 77
4 89 24 4 7 8 51 8 99 0 79 -2 88 -22 102 -35 25 -83 20 -107 -10z m87 -16
c18 -18 16 -143 -4 -162 -18 -19 -20 -19 -45 -6 -16 9 -19 22 -19 89 0 43 3
81 7 84 11 11 48 8 61 -5z"/>
<path d="M1901 5733 c-26 -23 -38 -111 -22 -170 13 -49 52 -70 99 -52 35 13
42 26 42 77 l0 42 -41 0 c-24 0 -38 -4 -34 -10 3 -5 15 -10 26 -10 24 0 26
-41 3 -64 -18 -19 -20 -19 -45 -6 -16 9 -19 22 -19 83 0 44 5 78 12 85 19 19
46 14 64 -13 21 -32 34 -32 34 -1 0 49 -77 74 -119 39z"/>
<path d="M2070 5630 c0 -100 3 -120 15 -120 11 0 15 12 15 50 0 42 3 50 18 50
12 0 26 -17 42 -50 22 -47 37 -59 53 -43 4 3 -5 26 -19 50 -25 44 -25 44 -5
61 11 9 21 26 23 37 4 28 -25 30 -37 3 -7 -16 -20 -24 -42 -26 -32 -3 -33 -2
-33 37 0 40 1 41 35 41 24 0 35 5 35 15 0 11 -12 15 -50 15 l-50 0 0 -120z"/>
<path d="M2447 5743 c-4 -3 -7 -58 -7 -120 0 -104 2 -114 18 -111 14 3 18 17
22 83 l5 80 19 -43 c10 -23 24 -42 31 -42 6 0 20 17 31 38 l19 37 5 -75 c4
-61 8 -75 23 -78 16 -3 17 6 15 115 -4 139 -16 154 -61 73 -16 -27 -30 -50
-32 -50 -3 0 -16 23 -30 50 -23 46 -42 60 -58 43z"/>
<path d="M2674 5737 c-2 -7 -3 -60 -2 -118 3 -90 5 -104 21 -107 15 -3 17 6
17 80 l0 83 26 -42 c14 -24 29 -43 33 -43 4 0 16 16 27 35 10 19 22 35 26 35
5 0 8 -34 8 -75 0 -60 3 -75 15 -75 13 0 15 20 15 120 0 102 -2 120 -15 120
-9 0 -24 -14 -33 -31 -9 -17 -24 -41 -33 -52 -16 -21 -17 -20 -43 31 -25 50
-51 66 -62 39z"/>
<path d="M2909 5733 c-2 -10 -3 -64 -1 -120 3 -81 6 -103 18 -103 11 0 14 22
14 120 0 96 -3 120 -14 120 -7 0 -15 -8 -17 -17z"/>
<path d="M2990 5630 c0 -98 3 -120 15 -120 11 0 15 18 17 78 l3 77 40 -75 c23
-43 48 -76 58 -78 15 -3 17 8 17 117 0 101 -2 121 -15 121 -12 0 -15 -14 -15
-69 0 -39 -4 -72 -8 -75 -5 -3 -25 29 -45 70 -55 110 -67 102 -67 -46z"/>
<path d="M3201 5724 c-17 -21 -21 -41 -21 -93 0 -79 15 -112 53 -122 31 -8 77
4 89 24 4 7 8 31 8 55 0 41 0 42 -35 42 -19 0 -35 -4 -35 -10 0 -5 9 -10 20
-10 25 0 28 -41 4 -64 -18 -19 -20 -19 -45 -6 -16 9 -19 22 -19 80 0 37 3 75
6 84 10 25 51 19 70 -9 18 -27 34 -25 34 5 0 26 -37 50 -76 50 -23 0 -39 -8
-53 -26z"/>
<path d="M2328 5723 c-2 -10 4 -42 14 -72 10 -30 18 -56 18 -58 0 -1 -16 -3
-35 -3 -19 0 -35 2 -35 4 0 2 7 23 15 46 19 53 19 60 0 60 -13 0 -65 -139 -65
-176 0 -24 29 -15 36 11 5 22 12 25 49 25 37 0 44 -3 49 -25 6 -25 36 -36 36
-12 0 6 -14 57 -30 111 -17 55 -30 101 -30 103 0 12 -19 0 -22 -14z"/>
<path d="M9065 5571 c-38 -5 -49 -10 -46 -21 2 -8 4 -21 5 -29 1 -13 -244
-210 -289 -232 -16 -8 -35 -1 -96 34 -42 23 -108 54 -146 67 -68 23 -69 24
-114 99 -31 53 -51 77 -67 79 -34 5 -28 -25 26 -116 44 -76 50 -82 97 -98 199
-65 398 -215 515 -387 45 -66 74 -83 87 -51 9 23 -59 116 -166 227 -52 53 -92
99 -90 100 2 2 68 52 147 112 134 102 143 107 160 92 25 -23 28 -22 45 21 9
20 23 54 31 75 l16 37 -32 -2 c-18 0 -55 -4 -83 -7z"/>
<path d="M9466 4996 c-42 -132 -41 -126 -21 -126 9 0 20 11 25 25 8 22 16 25
55 25 39 0 45 -3 45 -20 0 -20 25 -38 36 -27 3 2 -10 56 -29 118 -28 93 -38
115 -55 117 -17 3 -24 -12 -56 -112z m72 15 c17 -55 15 -61 -18 -61 -16 0 -30
3 -30 6 0 19 24 94 30 94 4 0 12 -17 18 -39z"/>
<path d="M9640 4991 c0 -99 3 -121 15 -121 11 0 15 18 17 78 l3 77 43 -77 c62
-111 72 -105 72 42 0 98 -3 120 -15 120 -11 0 -15 -18 -17 -77 l-3 -78 -41 75
c-22 41 -48 76 -57 78 -15 3 -17 -9 -17 -117z"/>
<path d="M9855 4997 c-19 -62 -35 -116 -35 -120 0 -18 32 -4 40 18 8 22 16 25
55 25 39 0 45 -3 45 -20 0 -20 25 -38 36 -27 3 3 -11 57 -31 121 -30 95 -40
116 -55 116 -16 0 -26 -21 -55 -113z m74 9 c14 -59 15 -56 -19 -56 -16 0 -30
3 -30 6 0 19 24 94 30 94 4 0 13 -20 19 -44z"/>
<path d="M10030 4990 l0 -120 66 0 c48 0 65 3 62 13 -3 6 -25 13 -51 15 l-47
3 0 105 c0 86 -3 104 -15 104 -12 0 -15 -20 -15 -120z"/>
<path d="M10140 5101 c0 -6 16 -37 35 -70 28 -47 35 -70 35 -111 0 -44 3 -51
18 -48 13 2 18 16 22 58 4 37 16 74 38 112 23 40 29 59 21 64 -13 8 -42 -25
-60 -68 -6 -16 -15 -28 -20 -28 -5 0 -20 23 -34 50 -14 28 -32 50 -40 50 -8 0
-15 -4 -15 -9z"/>
<path d="M10337 5104 c-14 -14 6 -24 49 -24 24 0 44 -3 44 -6 0 -3 -22 -47
-50 -98 -27 -51 -50 -96 -50 -99 0 -4 36 -7 81 -7 60 0 80 3 77 13 -3 7 -26
13 -56 15 -29 2 -52 5 -52 8 0 3 23 46 50 96 28 50 50 94 50 99 0 10 -133 12
-143 3z"/>
<path d="M10520 4990 l0 -120 70 0 c56 0 70 3 70 15 0 12 -13 15 -56 15 l-55
0 3 38 c3 32 7 37 31 40 15 2 27 7 27 12 0 5 -12 10 -27 12 -24 3 -28 8 -31
41 l-3 37 55 0 c43 0 56 3 56 15 0 12 -14 15 -70 15 l-70 0 0 -120z"/>
<path d="M1660 4483 c-8 -3 -63 -53 -122 -111 -115 -114 -136 -149 -118 -198
14 -37 209 -234 231 -234 10 0 26 10 36 23 11 12 48 49 84 82 35 33 7 1 -63
-70 -123 -125 -129 -134 -174 -235 -86 -196 -123 -299 -110 -309 19 -16 245
74 278 110 19 21 36 29 60 29 45 0 63 13 214 162 72 70 135 128 140 128 5 0
-35 -44 -89 -98 -53 -53 -97 -102 -97 -108 0 -5 51 -60 113 -122 156 -154 152
-154 334 22 93 90 115 131 89 171 -35 53 -80 55 -116 4 -12 -16 -26 -29 -32
-29 -6 0 6 18 26 40 40 45 43 56 20 88 -10 15 -25 22 -48 22 -30 0 -33 3 -29
24 7 37 -39 80 -75 71 -21 -5 -4 17 80 102 121 123 135 153 102 224 -22 50
-113 135 -154 144 -60 13 -89 -3 -202 -113 l-108 -105 0 35 c0 37 -24 68 -53
68 -9 0 -36 -17 -59 -37 l-43 -38 38 43 c40 45 42 53 27 82 -18 33 -48 44 -75
26 -23 -15 -23 -15 -12 13 14 37 5 56 -35 81 -35 21 -35 21 -58 13z m40 -58
c10 -13 6 -23 -29 -60 -44 -48 -47 -56 -31 -86 18 -32 59 -24 106 22 25 25 44
37 48 30 4 -6 -11 -29 -33 -50 -42 -41 -52 -76 -29 -99 24 -24 60 -13 100 30
27 30 41 39 49 31 8 -8 -23 -43 -106 -124 -64 -63 -122 -115 -128 -117 -15 -3
-133 111 -159 153 -37 61 -28 80 85 187 56 54 105 98 108 98 4 0 12 -7 19 -15z
m567 -86 c53 -26 93 -81 93 -128 0 -33 -20 -55 -267 -303 l-267 -268 -22 46
c-28 58 -57 90 -116 123 l-47 27 252 256 c139 140 259 258 267 261 30 11 65 7
107 -14z m-65 -503 c-43 -47 -51 -73 -30 -94 22 -22 58 -13 102 28 57 53 72
34 17 -20 -42 -41 -52 -75 -29 -98 23 -23 57 -13 98 29 33 34 43 39 55 29 8
-7 15 -18 15 -24 0 -14 -139 -161 -183 -193 -50 -37 -67 -31 -166 66 -50 48
-91 91 -91 95 0 15 236 241 244 234 5 -4 -9 -27 -32 -52z m48 -20 c0 -2 -8
-10 -17 -17 -16 -13 -17 -12 -4 4 13 16 21 21 21 13z m-521 -101 c23 -25 39
-49 36 -54 -8 -14 -176 -82 -186 -76 -8 6 5 44 50 148 24 56 33 55 100 -18z
m-182 -165 l25 -19 -36 -17 c-43 -21 -49 -17 -35 24 13 38 13 38 46 12z"/>
<path d="M10013 4420 c-43 -10 -79 -34 -100 -68 -24 -37 -27 -39 -81 -41 -96
-3 -154 -42 -170 -116 -4 -22 -7 -226 -5 -453 4 -574 -37 -527 448 -527 288 0
334 2 360 17 48 26 74 61 84 112 5 26 6 229 3 451 -5 387 -6 406 -26 441 -29
51 -69 73 -146 77 -57 4 -67 7 -77 28 -19 39 -58 70 -100 80 -45 10 -145 10
-190 -1z m184 -50 c30 -13 47 -30 60 -57 l18 -38 80 -5 c157 -11 150 14 150
-510 0 -414 -1 -429 -20 -450 -41 -47 -65 -50 -385 -50 -325 -1 -335 1 -374
53 -21 28 -21 38 -21 445 0 318 3 424 13 448 20 47 58 64 146 64 l76 0 15 38
c17 42 44 62 95 73 62 12 104 9 147 -11z"/>
<path d="M10038 4353 c-15 -2 -35 -14 -43 -26 -20 -29 -20 -126 1 -155 14 -20
23 -22 105 -22 115 0 129 11 129 104 0 80 -13 96 -78 96 -26 0 -56 2 -67 4
-11 2 -32 1 -47 -1z m131 -52 c8 -5 15 -27 15 -53 l1 -43 -77 -3 -78 -3 0 50
c0 39 4 51 18 54 31 8 107 7 121 -2z"/>
<path d="M9778 4228 c-46 -16 -49 -50 -46 -493 3 -373 4 -406 21 -422 16 -17
44 -18 347 -18 l329 0 23 23 23 23 3 420 3 420 -30 30 c-29 28 -34 30 -102 27
l-72 -3 -15 -43 c-19 -57 -50 -72 -146 -72 -73 0 -77 1 -117 37 -23 21 -45 48
-50 60 -8 21 -15 23 -76 22 -38 0 -80 -5 -95 -11z m137 -70 c6 -19 24 -42 42
-54 41 -27 147 -39 222 -24 55 10 80 7 41 -5 -32 -10 -90 -65 -90 -85 0 -36
12 -50 41 -50 16 0 29 -3 29 -6 0 -4 -14 -35 -31 -69 -55 -112 -161 -198 -277
-225 -62 -14 -91 -45 -73 -79 24 -44 89 -39 196 17 109 58 187 137 242 248 26
52 50 94 54 94 3 0 12 -7 19 -15 16 -19 29 -19 52 2 28 25 22 55 -23 122 -37
55 -44 61 -76 61 l-34 0 30 37 c17 21 31 43 31 50 0 22 77 16 100 -7 19 -19
20 -34 20 -312 1 -242 3 -296 15 -312 11 -14 15 -46 15 -107 l0 -86 -42 -8
c-24 -3 -169 -8 -323 -9 -257 -2 -280 -1 -297 16 -17 17 -18 46 -18 406 0 446
-2 432 78 432 45 0 48 -2 57 -32z m385 -128 c9 -17 8 -20 -14 -20 -13 0 -32 3
-41 7 -15 5 -14 8 6 19 32 18 37 17 49 -6z m-120 -254 c0 -2 -8 -10 -17 -17
-16 -13 -17 -12 -4 4 13 16 21 21 21 13z m-235 -176 c-3 -5 -11 -10 -16 -10
-6 0 -7 5 -4 10 3 6 11 10 16 10 6 0 7 -4 4 -10z"/>
<path d="M9876 3944 c-19 -19 -20 -38 -4 -64 10 -15 10 -22 0 -32 -19 -19 -14
-46 13 -64 22 -14 28 -15 47 -2 19 13 25 13 50 -1 26 -15 29 -15 49 6 20 19
21 25 10 51 -10 23 -10 35 -1 51 24 46 -19 86 -66 60 -19 -10 -27 -10 -36 -1
-17 17 -44 15 -62 -4z m94 -77 c0 -8 -7 -14 -15 -14 -8 0 -15 6 -15 14 0 7 7
13 15 13 8 0 15 -6 15 -13z"/>
<path d="M10225 3680 c-15 -16 -16 -24 -6 -48 9 -22 9 -35 0 -56 -11 -24 -10
-29 9 -48 18 -19 25 -20 48 -9 14 6 35 9 45 6 13 -5 19 -1 19 10 0 8 11 21 25
27 19 8 23 16 19 33 -3 13 -1 26 5 29 17 11 13 41 -9 61 -17 15 -24 16 -49 5
-21 -8 -35 -9 -49 -1 -28 15 -36 14 -57 -9z m95 -80 c0 -5 -4 -10 -9 -10 -6 0
-13 5 -16 10 -3 6 1 10 9 10 9 0 16 -4 16 -10z"/>
<path d="M10080 3553 c-52 -15 -90 -56 -90 -98 0 -31 31 -82 56 -94 31 -14 79
-14 105 -1 25 14 49 62 49 99 0 52 -71 107 -120 94z m52 -60 c35 -31 12 -103
-34 -103 -24 0 -58 35 -58 60 0 24 34 60 57 60 9 0 25 -7 35 -17z"/>
<path d="M9136 4408 c-3 -7 -7 -49 -11 -93 -40 -505 -436 -893 -950 -932 -91
-7 -100 -10 -100 -28 0 -19 6 -20 110 -19 247 4 497 115 687 305 l76 77 172
-90 171 -90 -6 -30 -7 -30 75 4 c42 2 79 6 82 10 8 8 -48 110 -70 128 -12 10
-16 9 -21 -4 -3 -9 -13 -16 -22 -16 -19 0 -332 162 -332 172 0 4 17 34 37 65
88 138 145 322 147 478 1 87 -1 100 -17 103 -9 2 -19 -2 -21 -10z"/>
<path d="M2923 4354 c-9 -25 6 -174 27 -263 11 -45 20 -84 20 -85 0 -6 -316
-186 -325 -186 -5 0 -16 7 -26 16 -17 15 -20 12 -55 -42 -55 -85 -53 -88 39
-92 l78 -3 -3 32 c-3 31 -1 33 151 120 85 49 157 89 160 89 4 -1 25 -40 48
-89 75 -158 223 -329 373 -431 157 -107 363 -177 548 -187 l104 -6 -4 24 c-3
22 -9 24 -117 36 -141 16 -240 42 -348 93 -345 161 -586 504 -610 865 -3 50
-10 98 -15 108 -11 21 -37 22 -45 1z"/>
<path d="M1430 3121 l0 -119 26 -6 c38 -10 93 4 109 27 10 14 15 46 15 95 0
64 -3 76 -25 97 -19 20 -34 25 -75 25 l-50 0 0 -119z m94 83 c13 -5 16 -22 16
-85 0 -77 -1 -80 -27 -90 -47 -18 -53 -8 -53 91 0 89 0 90 24 90 13 0 31 -3
40 -6z"/>
<path d="M1627 3234 c-4 -4 -7 -58 -7 -120 l0 -113 33 -6 c47 -9 110 -2 115
13 2 6 -5 12 -15 13 -30 2 -88 6 -94 8 -5 1 -5 41 -1 63 1 4 14 8 30 10 36 4
35 21 -3 28 -27 5 -30 9 -30 40 l0 35 58 3 c40 2 57 7 54 15 -4 13 -128 23
-140 11z"/>
<path d="M1810 3220 c-40 -40 -23 -77 59 -122 38 -21 41 -54 6 -70 -19 -9 -29
-8 -49 6 -32 20 -36 20 -36 -3 0 -38 89 -51 127 -19 7 6 13 27 13 48 0 40 -14
57 -68 84 -25 13 -32 23 -30 39 2 18 10 22 43 23 58 2 59 3 45 19 -19 22 -86
19 -110 -5z"/>
<path d="M1970 3120 c0 -100 3 -120 15 -120 13 0 15 20 15 120 0 100 -2 120
-15 120 -12 0 -15 -20 -15 -120z"/>
<path d="M2070 3220 c-17 -17 -20 -33 -20 -104 0 -64 4 -88 16 -100 43 -43
113 -24 128 35 13 52 3 69 -39 69 -38 0 -47 -14 -15 -23 35 -9 21 -77 -16 -77
-7 0 -20 7 -28 16 -19 18 -22 124 -6 155 15 27 45 24 68 -8 11 -15 24 -23 30
-19 18 11 14 24 -13 51 -30 31 -77 33 -105 5z"/>
<path d="M2240 3120 c0 -98 3 -120 15 -120 11 0 15 18 17 78 l3 77 40 -75 c23
-43 48 -76 58 -78 15 -3 17 8 17 117 0 101 -2 121 -15 121 -12 0 -15 -15 -15
-77 -1 -72 -2 -77 -16 -58 -9 11 -29 46 -45 78 -47 92 -59 79 -59 -63z"/>
<path d="M7855 3159 c-27 -21 -90 -59 -140 -84 -273 -135 -586 -149 -867 -39
-34 13 -67 24 -73 24 -7 0 -46 -23 -88 -51 -69 -45 -250 -129 -281 -129 -24 0
-47 -25 -40 -44 5 -13 14 -17 33 -13 67 14 210 74 292 124 l91 54 85 -30 c102
-37 230 -61 328 -61 46 0 76 -5 83 -12 5 -7 42 -87 80 -178 69 -160 71 -165
52 -179 -11 -7 -20 -17 -20 -22 0 -15 121 -102 130 -93 5 5 10 43 12 84 l3 75
-26 -3 c-24 -3 -29 5 -94 158 -37 88 -66 163 -64 165 3 2 51 13 107 25 57 11
144 37 192 56 147 59 300 158 300 195 0 31 -40 22 -95 -22z"/>
<path d="M4327 3086 c-8 -19 18 -41 88 -72 151 -67 304 -104 431 -104 88 0 84
13 54 -178 -32 -207 -28 -192 -55 -192 -14 0 -25 -6 -25 -13 0 -21 47 -131 57
-134 10 -4 103 103 103 117 0 4 -12 11 -26 14 -21 6 -25 11 -20 34 3 15 15 90
26 167 28 195 24 183 68 190 92 14 220 49 297 81 l84 36 87 -58 c131 -87 341
-171 366 -146 21 21 -2 40 -94 71 -106 37 -187 81 -283 151 l-67 48 -76 -35
c-221 -100 -466 -126 -692 -72 -79 18 -246 82 -264 100 -15 14 -53 11 -59 -5z"/>
<path d="M9434 3091 c-2 -2 -4 -58 -4 -123 0 -98 3 -118 15 -118 11 0 15 12
15 44 0 43 0 43 41 49 52 7 79 31 79 71 0 54 -22 74 -86 78 -31 1 -58 1 -60
-1z m106 -50 c10 -21 4 -51 -14 -63 -6 -4 -23 -8 -38 -8 -26 0 -28 3 -28 45 0
45 0 45 35 45 24 0 37 -6 45 -19z"/>
<path d="M9833 3092 c-11 -7 -73 -199 -73 -226 0 -25 27 -19 34 8 5 19 14 25
48 28 38 3 42 1 52 -24 10 -28 36 -39 36 -15 0 28 -65 227 -75 231 -7 2 -16 1
-22 -2z m15 -160 c-17 -2 -32 -2 -34 1 -2 2 4 28 13 58 l16 54 17 -55 18 -55
-30 -3z"/>
<path d="M9612 2973 l3 -118 63 -3 c51 -2 62 0 62 13 0 11 -11 15 -45 15 l-44
0 -3 102 c-3 89 -5 103 -21 106 -16 3 -17 -6 -15 -115z"/>
<path d="M9962 2973 c2 -97 6 -118 18 -118 12 0 16 16 18 75 l3 74 42 -74 c61
-108 72 -102 72 40 0 101 -2 115 -17 118 -16 3 -18 -6 -18 -75 l-1 -78 -40 78
c-29 58 -44 77 -59 77 -20 0 -21 -5 -18 -117z"/>
<path d="M10162 2973 c2 -97 6 -118 18 -118 12 0 16 16 18 75 l3 74 42 -74
c61 -108 72 -102 72 40 0 101 -2 115 -17 118 -16 3 -18 -6 -18 -75 l-1 -78
-40 78 c-29 58 -44 77 -59 77 -20 0 -21 -5 -18 -117z"/>
<path d="M10362 2973 c2 -97 6 -118 18 -118 12 0 15 19 15 115 0 102 -2 115
-18 118 -16 3 -17 -6 -15 -115z"/>
<path d="M10442 2973 c2 -97 6 -118 18 -118 12 0 16 17 20 74 l5 74 40 -77
c57 -110 70 -102 70 44 0 101 -2 115 -17 118 -16 3 -18 -6 -18 -75 l-1 -78
-40 78 c-29 58 -44 77 -59 77 -20 0 -21 -5 -18 -117z"/>
<path d="M10656 3068 c-11 -16 -16 -46 -16 -100 0 -92 17 -118 75 -118 51 0
77 30 73 83 -3 41 -4 42 -37 42 -19 0 -36 -6 -38 -12 -3 -8 5 -13 21 -13 17 0
26 -5 26 -16 0 -29 -21 -54 -45 -54 -32 0 -45 27 -45 94 0 43 5 61 20 76 22
22 52 15 64 -15 8 -21 36 -19 36 3 0 51 -104 74 -134 30z"/>
<path d="M3919 2376 c-147 -31 -269 -97 -373 -202 -84 -85 -127 -153 -173
-275 -28 -73 -33 -102 -31 -151 4 -84 28 -102 142 -106 127 -6 183 28 152 90
-9 17 -22 24 -56 28 -41 5 -45 7 -41 30 9 70 87 220 113 220 7 0 77 -64 154
-142 124 -125 142 -148 147 -183 9 -55 44 -85 103 -85 82 0 128 76 93 153 -14
31 -64 60 -94 55 -19 -4 -49 21 -170 142 l-147 148 38 26 c37 25 178 76 210
76 10 0 14 -12 14 -46 0 -64 13 -84 55 -84 41 0 55 20 55 79 0 22 4 42 9 46
16 10 102 -15 179 -52 39 -20 72 -37 72 -39 0 -2 -8 -20 -17 -40 l-18 -36 28
-24 c28 -24 48 -23 78 3 15 13 20 10 43 -20 33 -42 84 -155 88 -193 3 -27 0
-29 -37 -34 -54 -8 -65 -16 -65 -49 0 -46 30 -64 119 -69 86 -5 138 7 167 39
53 59 -23 295 -145 445 -88 109 -236 202 -376 239 -86 22 -236 27 -316 11z
m257 -47 c114 -20 235 -81 334 -167 134 -117 254 -392 200 -457 -15 -18 -165
-22 -175 -5 -6 10 1 12 60 14 25 1 31 6 33 30 8 68 -80 259 -147 320 -21 19
-22 19 -46 -4 -31 -29 -44 -20 -21 15 10 15 15 33 12 40 -7 18 -120 81 -189
104 -78 27 -167 37 -168 20 -4 -33 -6 -56 -7 -83 -3 -49 -17 -18 -17 37 l0 52
-50 -1 c-100 -3 -306 -95 -313 -139 -2 -14 45 -68 167 -189 94 -93 168 -173
165 -177 -2 -5 -83 70 -180 166 -96 96 -179 175 -184 175 -18 0 -83 -87 -115
-155 -18 -38 -39 -96 -46 -127 -15 -71 -5 -88 52 -88 22 0 39 -4 39 -9 0 -6
-35 -10 -77 -10 -88 0 -123 15 -123 53 0 30 44 164 71 219 135 268 433 418
725 366z"/>
<path d="M8480 2281 c0 -4 -19 -7 -42 -6 -101 7 -256 -64 -352 -161 -69 -68
-127 -168 -151 -260 -20 -75 -19 -210 1 -288 50 -194 206 -356 398 -411 76
-22 211 -22 296 0 184 48 349 197 411 370 30 83 36 227 15 319 -21 89 -82 206
-107 206 -12 0 -19 7 -19 19 0 10 -7 24 -15 31 -13 11 -15 8 -15 -19 0 -20 16
-58 40 -99 61 -100 75 -157 75 -293 l-1 -116 -44 -89 c-47 -92 -126 -184 -185
-214 -17 -8 -41 -23 -55 -32 -14 -10 -35 -20 -47 -22 -12 -3 -30 -9 -40 -14
-22 -12 -156 -24 -149 -14 2 4 22 9 43 10 105 7 257 80 330 159 53 58 76 96
115 198 33 87 31 233 -5 327 -39 102 -85 168 -118 168 -9 0 -20 8 -24 18 -6
16 -7 16 -19 0 -8 -11 -26 -18 -44 -18 -25 0 -35 6 -48 31 -9 19 -14 43 -10
60 3 16 1 31 -4 34 -6 4 -10 -20 -10 -59 0 -48 4 -66 13 -66 7 0 23 -11 34
-24 12 -13 27 -28 35 -32 51 -32 118 -196 118 -290 0 -91 -47 -199 -117 -271
-120 -123 -271 -161 -423 -106 -56 21 -91 43 -85 53 3 5 -4 6 -15 3 -19 -5
-26 6 -20 32 1 6 -2 7 -5 3 -9 -9 -45 9 -45 23 0 5 -9 20 -21 32 -41 44 -79
157 -79 238 0 156 115 324 258 374 48 17 57 24 58 45 0 14 6 35 13 48 20 37 9
42 -49 21 -30 -10 -60 -19 -67 -19 -19 0 -161 -101 -200 -142 -41 -43 -89
-138 -108 -213 -57 -223 57 -466 266 -567 85 -42 134 -58 172 -58 15 0 27 -4
27 -9 0 -5 -8 -8 -17 -6 -81 17 -130 30 -152 41 -14 8 -30 14 -34 14 -13 0
-110 75 -143 111 -104 112 -139 204 -139 364 1 170 35 247 173 382 50 48 88
76 118 87 24 8 44 12 44 8 0 -4 4 -1 9 7 5 7 42 20 82 27 72 14 119 35 119 54
0 6 -9 10 -20 10 -11 0 -20 -4 -20 -9z m-171 -155 c-2 -2 -15 -9 -29 -15 -24
-11 -24 -11 -6 3 16 13 49 24 35 12z m-111 -78 c-91 -88 -132 -168 -153 -303
-8 -50 -13 -66 -14 -44 -3 118 58 258 150 343 76 71 90 74 17 4z m618 -667
c-21 -21 -60 -51 -87 -66 -66 -35 -63 -25 4 13 28 16 65 44 81 61 17 17 32 31
35 31 3 0 -12 -18 -33 -39z m-173 -107 c-17 -7 -51 -16 -75 -19 -35 -4 -31 -2
22 13 79 23 96 25 53 6z"/>
<path d="M8594 2265 c-8 -21 3 -47 19 -43 6 3 13 14 15 25 4 24 -26 40 -34 18z"/>
<path d="M8700 2215 c0 -28 21 -33 41 -9 10 13 10 17 -2 25 -25 15 -39 10 -39
-16z"/>
<path d="M8495 2180 c-21 -40 -19 -60 5 -60 17 0 20 7 20 45 0 25 -2 45 -5 45
-2 0 -11 -13 -20 -30z"/>
<path d="M8592 2161 c0 -30 5 -55 14 -62 18 -15 23 0 21 61 -2 33 -6 46 -19
48 -14 3 -17 -5 -16 -47z"/>
<path d="M8794 2176 c-9 -22 2 -46 21 -46 12 0 15 8 13 27 -3 30 -25 42 -34
19z"/>
<path d="M5526 2042 c-3 -5 11 -59 30 -121 31 -99 38 -112 56 -109 17 2 27 23
54 113 22 71 30 113 24 119 -16 16 -25 -2 -50 -91 -12 -46 -26 -83 -30 -83 -4
0 -18 39 -31 87 -22 80 -39 107 -53 85z"/>
<path d="M5767 2043 c-8 -13 -67 -209 -67 -222 0 -22 30 -11 36 14 5 22 12 25
50 25 38 0 44 -3 50 -26 5 -21 31 -31 37 -14 1 3 -14 56 -32 118 -27 88 -38
112 -52 112 -10 0 -20 -3 -22 -7z m42 -107 c6 -22 9 -42 7 -44 -2 -2 -17 -2
-34 0 l-29 3 14 49 c16 53 26 51 42 -8z"/>
<path d="M5910 1940 c0 -60 -1 -113 -2 -117 -2 -5 27 -9 64 -11 58 -2 67 -1
62 13 -4 10 -20 15 -50 15 l-44 0 0 105 c0 87 -3 105 -15 105 -12 0 -15 -19
-15 -110z"/>
<path d="M6070 1930 c0 -100 3 -120 15 -120 13 0 15 20 15 120 0 100 -2 120
-15 120 -12 0 -15 -20 -15 -120z"/>
<path d="M6150 1930 l0 -120 54 0 c78 0 86 11 86 119 0 107 -10 121 -88 121
l-52 0 0 -120z m99 76 c7 -9 11 -42 9 -88 l-3 -73 -37 -3 -38 -3 0 90 0 91 29
0 c16 0 34 -6 40 -14z"/>
<path d="M6356 1936 c-20 -62 -36 -116 -36 -120 0 -17 32 -3 40 19 8 21 16 25
50 25 34 0 42 -4 50 -25 5 -14 16 -25 25 -25 20 0 20 -5 -21 126 -47 153 -58
153 -108 0z m72 15 c17 -56 15 -61 -19 -61 -28 0 -31 3 -25 23 4 12 9 34 12
50 9 37 19 34 32 -12z"/>
<path d="M6492 2038 c3 -7 18 -15 34 -18 l29 -5 1 -100 c1 -85 3 -100 17 -103
15 -3 17 9 17 102 l0 106 30 0 c20 0 30 5 30 15 0 12 -16 15 -81 15 -60 0 -80
-3 -77 -12z"/>
<path d="M6680 1930 c0 -96 3 -120 14 -120 22 0 27 27 25 125 -2 101 -5 115
-25 115 -11 0 -14 -24 -14 -120z"/>
<path d="M6780 2030 c-17 -17 -20 -33 -20 -103 0 -99 12 -117 78 -117 58 0 72
23 72 122 0 92 -17 118 -75 118 -22 0 -43 -8 -55 -20z m90 -29 c5 -11 10 -45
10 -75 0 -43 -5 -61 -21 -77 -18 -18 -23 -19 -42 -6 -18 12 -23 26 -25 75 -2
34 2 71 8 82 14 26 56 26 70 1z"/>
<path d="M6957 2043 c-4 -3 -7 -57 -7 -120 0 -106 1 -113 20 -113 18 0 20 7
20 78 l0 77 43 -78 c60 -110 71 -103 75 46 3 112 2 117 -18 117 -18 0 -20 -6
-20 -77 l0 -78 -43 77 c-39 73 -54 88 -70 71z"/>
<path d="M7261 2013 c-6 -21 -22 -73 -35 -115 -13 -42 -21 -79 -18 -82 11 -12
23 -5 32 19 8 21 16 25 54 25 38 0 45 -3 50 -25 4 -14 13 -25 22 -25 19 0 16
14 -25 145 -22 73 -32 91 -49 93 -17 3 -23 -4 -31 -35z m59 -110 c0 -8 -13
-13 -30 -13 -16 0 -30 4 -30 9 0 7 12 46 27 91 5 14 33 -59 33 -87z"/>
<path d="M7410 1931 c0 -101 2 -121 15 -121 12 0 15 15 15 78 1 71 2 76 16 57
9 -11 29 -46 45 -77 47 -93 59 -80 59 62 0 98 -3 120 -15 120 -11 0 -15 -18
-17 -77 l-3 -78 -40 75 c-23 43 -48 76 -57 78 -16 3 -18 -8 -18 -117z"/>
<path d="M7610 1930 l0 -120 55 0 c81 0 95 18 95 120 0 102 -14 120 -95 120
l-55 0 0 -120z m109 72 c10 -18 7 -134 -4 -152 -3 -5 -22 -10 -41 -10 l-34 0
0 90 0 90 35 0 c22 0 38 -6 44 -18z"/>
<path d="M8694 1924 c-17 -8 -70 -55 -118 -104 -60 -61 -93 -87 -104 -83 -12
3 -14 2 -4 -4 10 -7 7 -16 -12 -36 -14 -15 -31 -27 -38 -27 -17 1 -48 24 -48
37 0 5 -16 24 -35 43 -33 32 -36 33 -73 22 -61 -18 -88 -58 -83 -121 1 -7 32
-44 70 -81 38 -38 70 -72 72 -77 9 -20 71 -53 99 -53 35 0 59 20 284 241 132
129 138 137 131 167 -8 38 -61 92 -89 92 -12 0 -35 -7 -52 -16z m71 -60 l29
-27 -180 -173 c-99 -96 -187 -173 -198 -174 -18 0 -126 103 -166 160 l-19 27
23 22 c28 26 46 21 81 -25 14 -19 39 -41 56 -49 42 -22 62 -9 209 139 69 69
127 126 131 126 3 0 19 -12 34 -26z"/>
<path d="M5915 1638 c-4 -10 8 -66 27 -125 28 -89 37 -108 53 -108 16 0 25 19
52 110 32 103 36 144 13 130 -8 -5 -18 -34 -57 -169 -8 -28 -18 -8 -39 73 -10
40 -24 81 -31 90 -11 15 -12 15 -18 -1z"/>
<path d="M6115 1637 c-3 -7 -4 -62 -3 -123 l3 -109 68 0 c79 0 95 19 20 23
l-53 3 0 39 c0 35 3 39 28 42 33 4 32 22 -3 26 -22 3 -25 8 -25 42 l0 39 53 3
c75 4 64 22 -16 26 -50 2 -69 -1 -72 -11z"/>
<path d="M6297 1643 c-4 -3 -7 -60 -7 -125 0 -96 3 -118 14 -118 11 0 16 15
18 52 4 73 25 74 63 3 16 -30 33 -55 37 -55 18 0 17 22 -3 63 l-22 44 22 22
c21 21 28 65 13 88 -16 25 -117 45 -135 26z m98 -39 c22 -22 15 -46 -18 -62
-41 -20 -57 -9 -57 38 0 38 2 40 29 40 16 0 37 -7 46 -16z"/>
<path d="M6487 1644 c-4 -4 -7 -61 -7 -126 0 -91 3 -119 13 -116 8 3 13 38 15
118 2 104 -4 141 -21 124z"/>
<path d="M6560 1525 c0 -97 3 -126 13 -123 7 3 13 26 15 56 3 50 4 52 33 52
19 0 29 5 29 15 0 10 -10 15 -30 15 -28 0 -30 2 -30 40 l0 40 56 0 c40 0 55 3
52 13 -3 7 -29 13 -71 15 l-67 3 0 -126z"/>
<path d="M6737 1644 c-4 -4 -7 -61 -7 -126 0 -91 3 -119 13 -116 8 3 13 38 15
118 2 104 -4 141 -21 124z"/>
<path d="M6841 1637 c-31 -15 -44 -64 -39 -141 4 -46 9 -63 27 -77 45 -36 121
-13 121 37 0 30 -22 31 -35 2 -11 -26 -54 -36 -66 -16 -16 24 -11 154 6 168
19 16 65 -2 65 -25 0 -8 7 -15 15 -15 18 0 20 43 3 58 -23 17 -72 22 -97 9z"/>
<path d="M7043 1638 c-20 -32 -72 -223 -63 -232 12 -12 27 1 32 29 2 16 12 21
46 23 40 3 43 1 53 -27 11 -31 23 -39 33 -22 7 10 -52 210 -66 229 -6 6 -14
12 -19 12 -4 0 -11 -6 -16 -12z m36 -92 c16 -63 15 -66 -20 -66 -29 0 -31 2
-25 26 4 15 10 39 13 55 8 41 19 36 32 -15z"/>
<path d="M7147 1643 c-14 -14 -6 -22 26 -25 l32 -3 3 -105 c2 -58 5 -106 7
-108 2 -2 8 -1 14 3 7 4 11 47 11 111 l0 104 30 0 c20 0 30 5 30 15 0 12 -15
15 -73 15 -41 0 -77 -3 -80 -7z"/>
<path d="M7335 1638 c-3 -8 -4 -63 -3 -124 2 -89 6 -109 18 -109 12 0 15 20
15 119 0 87 -3 120 -12 123 -7 3 -15 -2 -18 -9z"/>
<path d="M7460 1643 c-42 -16 -50 -34 -50 -120 0 -97 16 -123 75 -123 59 0 75
26 75 119 0 60 -4 84 -17 99 -19 23 -59 34 -83 25z m54 -45 c18 -26 22 -119 6
-149 -6 -11 -21 -19 -35 -19 -33 0 -45 27 -45 96 0 83 40 121 74 72z"/>
<path d="M7605 1638 c-3 -8 -4 -63 -3 -124 2 -89 6 -109 18 -109 12 0 16 17
20 75 l5 75 40 -75 c59 -110 70 -103 70 45 0 100 -2 120 -15 120 -12 0 -16
-17 -20 -75 l-5 -75 -40 74 c-40 75 -60 95 -70 69z"/>
<path d="M3480 1465 c0 -10 10 -15 30 -15 l29 0 3 -107 c2 -88 6 -108 18 -108
12 0 16 20 18 108 l3 107 29 0 c20 0 30 5 30 15 0 12 -16 15 -80 15 -64 0 -80
-3 -80 -15z"/>
<path d="M3675 1467 c-3 -7 -4 -62 -3 -123 l3 -109 68 0 c81 0 94 18 17 25
l-55 5 -3 37 c-3 35 -2 37 30 40 41 4 43 21 3 28 -27 5 -30 9 -30 40 l0 35 55
5 c77 7 69 24 -13 28 -50 2 -69 -1 -72 -11z"/>
<path d="M3873 1470 c-26 -11 -41 -56 -26 -79 6 -9 30 -27 54 -42 32 -18 44
-32 44 -49 0 -36 -29 -48 -67 -27 -35 20 -55 10 -36 -16 19 -26 82 -33 113
-13 36 24 36 86 -1 115 -15 12 -32 21 -39 21 -6 0 -20 9 -30 20 -27 30 -3 54
47 47 43 -6 59 7 29 22 -23 13 -58 13 -88 1z"/>
<path d="M4007 1473 c-14 -14 -6 -22 26 -25 l32 -3 5 -105 c7 -139 24 -137 28
3 l3 107 29 0 c20 0 30 5 30 15 0 12 -15 15 -73 15 -41 0 -77 -3 -80 -7z"/>
<path d="M4197 1474 c-10 -10 -9 -232 1 -238 4 -2 14 -1 20 3 9 5 12 39 10
121 -3 105 -11 134 -31 114z"/>
<path d="M4277 1474 c-11 -12 -8 -234 3 -234 6 0 13 -1 18 -2 4 -2 9 31 12 72
l5 75 40 -75 c59 -110 70 -103 70 45 0 100 -2 120 -15 120 -12 0 -16 -17 -20
-75 l-5 -75 -40 74 c-39 73 -54 89 -68 75z"/>
<path d="M4496 1459 c-24 -19 -26 -26 -26 -100 0 -71 3 -82 25 -104 51 -51
125 -13 125 65 l0 40 -40 0 c-42 0 -56 -16 -17 -22 18 -2 22 -9 20 -32 -3 -44
-38 -60 -67 -30 -20 20 -22 132 -3 159 16 21 67 14 67 -10 0 -19 19 -30 32
-17 15 15 1 48 -28 60 -36 17 -58 15 -88 -9z"/>
<path d="M8499 1463 c-13 -16 -12 -17 4 -4 16 13 21 21 13 21 -2 0 -10 -8 -17
-17z"/>
</g>
</svg>
